<svg width="24" height="25" viewBox="0 0 24 25" fill="none" xmlns="http://www.w3.org/2000/svg">
<path fill-rule="evenodd" clip-rule="evenodd" d="M17.8865 12.5598C17.5185 12.5598 17.1975 12.2888 17.1445 11.9138C17.0875 11.5028 17.3725 11.1238 17.7835 11.0668C18.8235 10.9208 19.6085 10.0188 19.6105 8.96684C19.6105 7.92384 18.8625 7.04184 17.8315 6.87284C17.4235 6.80584 17.1465 6.41984 17.2135 6.01084C17.2815 5.60184 17.6645 5.32784 18.0755 5.39284C19.8335 5.68184 21.1105 7.18584 21.1105 8.96884C21.1065 10.7638 19.7655 12.3038 17.9905 12.5528C17.9555 12.5578 17.9205 12.5598 17.8865 12.5598" fill="#231F20"/>
<mask id="mask0_5562_61952" style="mask-type:alpha" maskUnits="userSpaceOnUse" x="18" y="14" width="5" height="5">
<path fill-rule="evenodd" clip-rule="evenodd" d="M18.978 14.415H22.772V18.9445H18.978V14.415Z" fill="white"/>
</mask>
<g mask="url(#mask0_5562_61952)">
<path fill-rule="evenodd" clip-rule="evenodd" d="M20.8613 18.9445C20.5593 18.9445 20.2743 18.7605 20.1603 18.4615C20.0123 18.0745 20.2073 17.6405 20.5943 17.4935C21.2723 17.2355 21.2723 16.9505 21.2723 16.8135C21.2723 16.3755 20.7153 16.0695 19.6173 15.9055C19.2083 15.8435 18.9253 15.4625 18.9863 15.0515C19.0473 14.6415 19.4273 14.3685 19.8403 14.4215C22.2633 14.7845 22.7723 15.9225 22.7723 16.8135C22.7723 17.3575 22.5583 18.3505 21.1283 18.8955C21.0403 18.9285 20.9503 18.9445 20.8613 18.9445" fill="#231F20"/>
</g>
<path fill-rule="evenodd" clip-rule="evenodd" d="M11.8867 16.3273C9.51073 16.3273 6.67773 16.6193 6.67773 18.0093C6.67773 19.4103 9.51073 19.7043 11.8867 19.7043C14.2627 19.7043 17.0947 19.4133 17.0947 18.0263C17.0947 16.6223 14.2627 16.3273 11.8867 16.3273M11.8867 21.2043C10.2277 21.2043 5.17773 21.2043 5.17773 18.0093C5.17773 14.8273 10.2277 14.8273 11.8867 14.8273C13.5457 14.8273 18.5947 14.8273 18.5947 18.0263C18.5947 21.2043 13.7217 21.2043 11.8867 21.2043" fill="#231F20"/>
<path fill-rule="evenodd" clip-rule="evenodd" d="M11.8864 5.91333C10.1944 5.91333 8.8184 7.29033 8.8184 8.98233C8.8154 9.80233 9.1294 10.5693 9.7044 11.1483C10.2794 11.7273 11.0454 12.0483 11.8614 12.0513L11.8864 12.8013V12.0513C13.5784 12.0513 14.9554 10.6753 14.9554 8.98233C14.9554 7.29033 13.5784 5.91333 11.8864 5.91333M11.8864 13.5513H11.8594C10.6394 13.5473 9.4964 13.0693 8.6404 12.2053C7.7824 11.3423 7.3134 10.1963 7.3184 8.97933C7.3184 6.46333 9.3674 4.41333 11.8864 4.41333C14.4064 4.41333 16.4554 6.46333 16.4554 8.98233C16.4554 11.5013 14.4064 13.5513 11.8864 13.5513" fill="#231F20"/>
<path fill-rule="evenodd" clip-rule="evenodd" d="M5.8856 12.5598C5.8516 12.5598 5.8166 12.5578 5.7816 12.5528C4.0066 12.3038 2.6666 10.7638 2.6626 8.97084C2.6626 7.18584 3.9396 5.68184 5.6976 5.39284C6.1186 5.32684 6.4916 5.60384 6.5596 6.01084C6.6266 6.41984 6.3496 6.80584 5.9416 6.87284C4.9106 7.04184 4.1626 7.92384 4.1626 8.96884C4.1646 10.0188 4.9496 10.9218 5.9886 11.0668C6.3996 11.1238 6.6846 11.5028 6.6276 11.9138C6.5746 12.2888 6.2536 12.5598 5.8856 12.5598" fill="#231F20"/>
<path fill-rule="evenodd" clip-rule="evenodd" d="M2.912 18.9445C2.823 18.9445 2.733 18.9285 2.645 18.8955C1.214 18.3495 1 17.3565 1 16.8135C1 15.9235 1.509 14.7845 3.933 14.4215C4.346 14.3695 4.724 14.6415 4.786 15.0515C4.847 15.4625 4.564 15.8435 4.155 15.9055C3.057 16.0695 2.5 16.3755 2.5 16.8135C2.5 16.9505 2.5 17.2345 3.179 17.4935C3.566 17.6405 3.761 18.0745 3.613 18.4615C3.499 18.7605 3.214 18.9445 2.912 18.9445" fill="#231F20"/>
</svg>
