<svg width="22" height="16" viewBox="0 0 22 16" fill="none" xmlns="http://www.w3.org/2000/svg">
<path d="M0.859375 5.15625C0.384742 5.15625 0 4.77151 0 4.29688V2.57812C0 1.15655 1.15655 0 2.57812 0H4.29688C4.77151 0 5.15625 0.384742 5.15625 0.859375C5.15625 1.33401 4.77151 1.71875 4.29688 1.71875H2.57812C2.10427 1.71875 1.71875 2.10427 1.71875 2.57812V4.29688C1.71875 4.77151 1.33401 5.15625 0.859375 5.15625Z" fill="black"/>
<path d="M3.4375 15.4688H2.57812C1.15655 15.4688 0 14.3122 0 12.8906V11.1719C0 10.6972 0.384742 10.3125 0.859375 10.3125C1.33401 10.3125 1.71875 10.6972 1.71875 11.1719V12.8906C1.71875 13.3645 2.10427 13.75 2.57812 13.75H3.4375C3.91213 13.75 4.29688 14.1347 4.29688 14.6094C4.29688 15.084 3.91213 15.4688 3.4375 15.4688Z" fill="black"/>
<path d="M21.1406 5.15625C20.666 5.15625 20.2812 4.77151 20.2812 4.29688V2.57812C20.2812 2.10427 19.8957 1.71875 19.4219 1.71875H17.7031C17.2285 1.71875 16.8438 1.33401 16.8438 0.859375C16.8438 0.384742 17.2285 0 17.7031 0H19.4219C20.8435 0 22 1.15655 22 2.57812V4.29688C22 4.77151 21.6153 5.15625 21.1406 5.15625Z" fill="black"/>
<path d="M19.4219 15.4688H18.5625C18.0879 15.4688 17.7031 15.084 17.7031 14.6094C17.7031 14.1347 18.0879 13.75 18.5625 13.75H19.4219C19.8957 13.75 20.2812 13.3645 20.2812 12.8906V11.1719C20.2812 10.6972 20.666 10.3125 21.1406 10.3125C21.6153 10.3125 22 10.6972 22 11.1719V12.8906C22 14.3122 20.8435 15.4688 19.4219 15.4688Z" fill="black"/>
<path d="M21.1406 6.875H18.7344V4.29688C18.7344 3.82224 18.3496 3.4375 17.875 3.4375C17.4004 3.4375 17.0156 3.82224 17.0156 4.29688V6.875H15.2969V4.29688C15.2969 3.82224 14.9121 3.4375 14.4375 3.4375C13.9629 3.4375 13.5781 3.82224 13.5781 4.29688V6.875H11.8594V4.29688C11.8594 3.82224 11.4746 3.4375 11 3.4375C10.5254 3.4375 10.1406 3.82224 10.1406 4.29688V6.875H8.41079L8.42188 4.30057C8.42389 3.82594 8.04083 3.43952 7.5662 3.4375C7.56491 3.4375 7.56366 3.4375 7.56241 3.4375C7.08954 3.4375 6.70519 3.81984 6.70312 4.29318L6.692 6.875H4.98438V4.29688C4.98438 3.82224 4.59963 3.4375 4.125 3.4375C3.65037 3.4375 3.26562 3.82224 3.26562 4.29688V6.875H0.859375C0.384742 6.875 0 7.25974 0 7.73438C0 8.20901 0.384742 8.59375 0.859375 8.59375H21.1406C21.6153 8.59375 22 8.20901 22 7.73438C22 7.25974 21.6153 6.875 21.1406 6.875Z" fill="black"/>
</svg>
