<svg width="20" height="20" viewBox="0 0 20 20" fill="none" xmlns="http://www.w3.org/2000/svg">
<path d="M6.84171 4.40845C6.76361 4.48591 6.70161 4.57808 6.6593 4.67963C6.617 4.78118 6.59521 4.8901 6.59521 5.00011C6.59521 5.11012 6.617 5.21904 6.6593 5.32059C6.70161 5.42214 6.76361 5.51431 6.84171 5.59178L10.6584 9.40845C10.7365 9.48591 10.7985 9.57808 10.8408 9.67963C10.8831 9.78118 10.9049 9.8901 10.9049 10.0001C10.9049 10.1101 10.8831 10.219 10.8408 10.3206C10.7985 10.4221 10.7365 10.5143 10.6584 10.5918L6.84171 14.4084C6.76361 14.4859 6.70161 14.5781 6.6593 14.6796C6.617 14.7812 6.59521 14.8901 6.59521 15.0001C6.59521 15.1101 6.617 15.219 6.6593 15.3206C6.70161 15.4221 6.76361 15.5143 6.84171 15.5918C6.99785 15.747 7.20906 15.8341 7.42921 15.8341C7.64937 15.8341 7.86058 15.747 8.01671 15.5918L11.8417 11.7668C12.3099 11.298 12.5728 10.6626 12.5728 10.0001C12.5728 9.33761 12.3099 8.7022 11.8417 8.23344L8.01671 4.40845C7.86057 4.25324 7.64937 4.16612 7.42921 4.16612C7.20906 4.16612 6.99785 4.25324 6.84171 4.40845Z" fill="#2A398C"/>
</svg>
