<svg width="83" height="47" viewBox="0 0 83 47" fill="none" xmlns="http://www.w3.org/2000/svg">
<path d="M10.1298 34.627L6.71085 44.2889L3.6309 35.732C3.53535 35.4292 3.3513 35.1621 3.10251 34.9651C2.85373 34.7681 2.55165 34.6503 2.23531 34.627H0L0.0729346 34.8243C0.36075 34.8432 0.636034 34.9492 0.862361 35.1282C1.08869 35.3072 1.25538 35.5508 1.3404 35.8267L5.3537 46.9952H7.02131L11.3914 34.626H10.1298V34.627Z" fill="white"/>
<path d="M15.0954 45.6388C15.0954 45.2205 15.0954 34.7979 15.0954 34.7979H12.9173V45.6457C12.9173 45.6457 12.869 46.9954 14.0221 46.9954H15.7085V46.8336C15.7085 46.8336 15.0954 46.7182 15.0954 45.6388Z" fill="white"/>
<path d="M27.9637 45.6024V34.8482L27.9716 34.793H26.7761H26.7663V43.8383L20.2614 34.7999H17.1499L17.1716 34.9291C17.4115 35.1284 17.5984 35.3841 17.7153 35.6733C17.8323 35.9626 17.8757 36.2764 17.8418 36.5866V46.6502C17.8418 46.6669 17.8497 46.6827 17.8497 46.6985V46.7972C17.8497 46.8159 17.8418 46.8376 17.8418 46.8613V46.9994H19.0511V46.9767V36.7277L26.4538 46.9955H28.6369L28.6251 46.8386C28.4039 46.7225 28.2226 46.5425 28.1047 46.3222C27.9868 46.1018 27.9377 45.851 27.9637 45.6024" fill="white"/>
<path d="M33.8359 34.7979H29.4639L29.4806 34.9271C29.4806 34.9271 30.0956 35.1363 30.1636 36.5136V45.6457C30.1636 45.6457 30.141 46.9954 31.2596 46.9954H33.0465V46.8465C32.8259 46.7369 32.6426 46.5644 32.5199 46.3507C32.3971 46.137 32.3403 45.8917 32.3566 45.6457V41.2908H34.1996C34.6313 41.2967 38.2474 41.4151 38.2474 38.1593C38.2474 34.9626 35.2226 34.7979 33.8349 34.7979H33.8359ZM33.7285 40.2677C33.0731 40.2677 32.3556 40.2677 32.3556 40.2677V35.8378H33.7916C35.0472 35.8378 36.0584 36.1525 36.0584 38.1563C36.0584 40.093 34.5258 40.2677 33.7246 40.2677" fill="white"/>
<path d="M46.9199 45.7311H42.2995V41.4047H47.1367L47.1495 41.3426V40.1981L47.1367 40.134H42.2995V36.0642H46.231C47.1347 36.0642 47.4137 36.368 47.4935 36.5851H47.6847L47.462 35.3025C47.3437 35.1282 47.1804 34.9892 46.9895 34.9005C46.7986 34.8117 46.5872 34.7764 46.3778 34.7983H39.4019L39.4216 34.9276C39.4216 34.9276 40.0681 35.1466 40.1036 36.6413V46.9959H47.0175C47.3276 47.0031 47.6308 46.9031 47.8759 46.7128L48.0632 45.2003H47.9094C47.7626 45.7686 47.0165 45.7311 46.9189 45.7311" fill="white"/>
<path d="M59.8554 45.6392L56.8474 36.1893L56.9056 36.3709C56.6444 35.5579 56.4768 35.0439 56.6937 34.8022L56.6739 34.667H53.6886L51.6908 40.7465C50.7338 40.8028 49.7887 40.5109 49.0297 39.9247L49.0041 40.0914C48.9913 40.0835 49.56 41.2043 49.5856 41.227C50.1203 41.6064 50.7401 41.848 51.3902 41.9305L49.7817 46.9948L49.8241 46.9899H51.1261L52.7513 42.0143H55.2902C55.5938 41.9876 55.8972 42.0679 56.1479 42.2414C56.3986 42.4149 56.5808 42.6707 56.6631 42.9645L57.5393 45.6382C57.5393 45.6382 57.901 46.9899 58.857 46.9899H60.571L60.5641 46.8695C60.1609 46.6722 59.8741 45.728 59.8515 45.6382L59.8554 45.6392ZM55.2192 40.7505H53.0342L54.5352 36.1341L56.1299 40.9222C55.8528 40.7792 55.5403 40.7195 55.2301 40.7505" fill="white"/>
<path d="M70.4207 44.0137C70.037 43.287 69.605 42.5869 69.1276 41.9181C68.8227 41.5309 68.4412 41.2108 68.007 40.9779C68.5396 40.8263 69.0214 40.5336 69.4017 40.1307C69.782 39.7278 70.0466 39.2297 70.1677 38.6888C70.2888 38.148 70.2619 37.5844 70.0898 37.0576C69.9176 36.5308 69.6067 36.0602 69.1897 35.6955C68.3931 35.062 67.3928 34.7416 66.3768 34.7947H61.4312L61.4528 34.924C61.4528 34.924 62.0678 35.1361 62.1299 36.5233V36.8775C62.1299 36.9318 62.1398 36.988 62.1398 37.0442V44.7103C62.1398 44.7636 62.1299 44.8178 62.1299 44.8721V46.9963H64.312V41.6518H65.3085C66.5473 41.6518 67.0421 42.5397 68.0346 44.285C68.4014 44.9477 68.8015 45.5915 69.233 46.2139C69.3867 46.4693 69.6078 46.6774 69.8719 46.8152C70.136 46.9531 70.433 47.0154 70.7301 46.9953H72.5515V46.9904L72.5584 46.8483C71.9109 46.6766 71.3314 45.6081 70.4167 44.0127L70.4207 44.0137ZM66.0555 40.3553H64.3081V35.8169H65.8485C66.1469 35.7903 66.4474 35.8289 66.7294 35.9299C67.0114 36.0309 67.2682 36.192 67.4819 36.402C67.6956 36.6121 67.8613 36.866 67.9674 37.1464C68.0736 37.4268 68.1177 37.7268 68.0967 38.0259C68.1246 38.3146 68.0931 38.6059 68.0041 38.8818C67.9151 39.1578 67.7706 39.4126 67.5794 39.6304C67.3882 39.8482 67.1544 40.0245 66.8925 40.1484C66.6305 40.2722 66.346 40.341 66.0565 40.3504" fill="white"/>
<path d="M82.0051 45.7306H76.34L76.3203 45.7197V37.0681C76.3203 36.9694 76.3301 37.4065 76.3301 36.2452C76.3301 34.8324 75.2272 34.7979 75.2272 34.7979H73.4453L73.467 34.9271C73.467 34.9271 74.0583 35.1244 74.1411 36.4366V36.8076C74.1411 36.8431 74.148 36.8806 74.148 36.9132V44.6088C74.148 44.6453 74.1411 44.6779 74.1411 44.7163V46.9954H81.8691L82.0298 45.7227L82.0051 45.7306Z" fill="white"/>
<path d="M56.1853 0.00251777C47.7851 1.0011 39.1977 3.74279 38.6283 12.0408C38.3641 15.922 39.5696 18.8372 40.929 21.6519C37.5151 18.3216 32.5852 15.6503 25.6753 16.3018C29.8844 17.484 34.8527 19.7452 37.5228 22.7334C38.0871 23.3698 38.913 24.4715 38.718 25.4072C38.3948 26.9843 35.4631 26.6624 33.6882 26.7479C37.3689 28.2093 41.483 30.8428 46.7309 30.6718C49.3548 30.5888 51.2811 29.0092 51.0785 26.0788C50.7091 20.8143 46.7976 16.3144 46.3872 10.3656C45.9306 3.65476 50.6886 1.19226 56.0211 0.0905478C56.1288 0.123247 56.2981 0.0905594 56.3417 0.055345C56.3776 0.0301918 56.3443 0 56.1981 0H56.1853V0.00251777Z" fill="url(#paint0_linear_2_29)"/>
<defs>
<linearGradient id="paint0_linear_2_29" x1="41.0152" y1="0" x2="41.0152" y2="30.6797" gradientUnits="userSpaceOnUse">
<stop stop-color="#CF873C"/>
<stop offset="1" stop-color="#F2A842"/>
</linearGradient>
</defs>
</svg>
