<svg width="12" height="12" viewBox="0 0 12 12" fill="none" xmlns="http://www.w3.org/2000/svg">
<g clip-path="url(#clip0_16609_43909)">
<path d="M9.56104 10.1897C9.80348 10.1897 10 10.3863 10 10.6287V11.4C10 11.7299 9.73002 12 9.4 12H0.6C0.269977 12 0 11.7299 0 11.4V2.6C0 2.27012 0.269977 2 0.6 2H1.3713C1.61371 2 1.81026 2.19655 1.81026 2.43896V9.75076C1.81026 9.9932 2.0068 10.1897 2.24922 10.1897L9.56104 10.1897Z" fill="#898994"/>
<path d="M11.9999 0.6V4.2C11.9999 4.52988 11.73 4.8 11.3999 4.8C11.0699 4.8 10.7999 4.52988 10.7999 4.2V2.05195L5.62591 7.22598C5.50594 7.33995 5.35594 7.4 5.19994 7.4C5.04394 7.4 4.89394 7.33995 4.77396 7.22598C4.53987 6.99188 4.53987 6.60809 4.77396 6.37402L9.94798 1.2H7.79994C7.46991 1.2 7.19994 0.929883 7.19994 0.6C7.19994 0.270117 7.46991 0 7.79994 0H11.3999C11.448 0 11.5019 0.00585937 11.5499 0.0240234C11.58 0.0240234 11.604 0.0360469 11.634 0.0480469C11.706 0.0779297 11.772 0.120117 11.8259 0.174023C11.88 0.22793 11.922 0.294141 11.9519 0.365906C11.9639 0.396094 11.9759 0.420094 11.9759 0.45C11.9939 0.498047 11.9999 0.551953 11.9999 0.6Z" fill="#898994"/>
</g>
<defs>
<clipPath id="clip0_16609_43909">
<rect width="12" height="12" fill="white"/>
</clipPath>
</defs>
</svg>
