<svg width="20" height="21" viewBox="0 0 20 21" fill="none" xmlns="http://www.w3.org/2000/svg">
<path fill-rule="evenodd" clip-rule="evenodd" d="M10 1.91333C5.313 1.91333 1.5 5.72633 1.5 10.4133C1.5 15.1003 5.313 18.9133 10 18.9133C14.687 18.9133 18.5 15.1003 18.5 10.4133C18.5 5.72633 14.687 1.91333 10 1.91333ZM10 20.4133C4.486 20.4133 0 15.9273 0 10.4133C0 4.89933 4.486 0.41333 10 0.41333C15.514 0.41333 20 4.89933 20 10.4133C20 15.9273 15.514 20.4133 10 20.4133Z" fill="#231F20"/>
<path fill-rule="evenodd" clip-rule="evenodd" d="M13.4311 14.1057C13.3001 14.1057 13.1681 14.0717 13.0471 14.0007L9.27713 11.7517C9.05113 11.6157 8.91113 11.3707 8.91113 11.1067V6.25873C8.91113 5.84473 9.24713 5.50873 9.66113 5.50873C10.0761 5.50873 10.4111 5.84473 10.4111 6.25873V10.6807L13.8161 12.7107C14.1711 12.9237 14.2881 13.3837 14.0761 13.7397C13.9351 13.9747 13.6861 14.1057 13.4311 14.1057Z" fill="#231F20"/>
</svg>
