<svg width="9" height="17" viewBox="0 0 9 17" fill="none" xmlns="http://www.w3.org/2000/svg">
<path d="M7.03395 16.2467C6.86795 16.2472 6.70394 16.2107 6.55397 16.1399C6.40399 16.069 6.27186 15.9656 6.16728 15.8372L0.800616 9.19721C0.637192 8.99919 0.547852 8.7508 0.547852 8.49447C0.547852 8.23814 0.637192 7.98976 0.800616 7.79174L6.35617 1.15174C6.54477 0.925739 6.81578 0.783616 7.10959 0.756636C7.4034 0.729656 7.69593 0.820028 7.92284 1.00787C8.14974 1.19572 8.29244 1.46565 8.31953 1.75828C8.34662 2.05091 8.25588 2.34227 8.06728 2.56827L3.10062 8.50001L7.90061 14.4317C8.03649 14.5942 8.12279 14.792 8.14933 15.0018C8.17586 15.2115 8.14151 15.4245 8.05033 15.6154C7.95916 15.8063 7.81498 15.9673 7.63486 16.0791C7.45474 16.191 7.24621 16.2491 7.03395 16.2467Z" fill="black"/>
</svg>
