<svg width="9" height="17" viewBox="0 0 9 17" fill="none" xmlns="http://www.w3.org/2000/svg">
<path d="M1.96605 0.753326C2.13204 0.752764 2.29606 0.789254 2.44603 0.860112C2.59601 0.93097 2.72814 1.0344 2.83272 1.16279L8.19938 7.80279C8.36281 8.00081 8.45215 8.2492 8.45215 8.50553C8.45215 8.76186 8.36281 9.01024 8.19938 9.20826L2.64383 15.8483C2.45523 16.0743 2.18422 16.2164 1.89041 16.2434C1.5966 16.2703 1.30407 16.18 1.07716 15.9921C0.850255 15.8043 0.707561 15.5344 0.680473 15.2417C0.653385 14.9491 0.744119 14.6577 0.932718 14.4317L5.89938 8.49999L1.09938 2.56826C0.963514 2.40582 0.877206 2.20801 0.850673 1.99824C0.82414 1.78848 0.858492 1.57553 0.949665 1.3846C1.04084 1.19367 1.18502 1.03274 1.36514 0.920871C1.54526 0.808998 1.75379 0.750857 1.96605 0.753326Z" fill="black"/>
</svg>
