<svg width="13" height="13" viewBox="0 0 13 13" fill="none" xmlns="http://www.w3.org/2000/svg">
<path fill-rule="evenodd" clip-rule="evenodd" d="M6.4935 0C2.9055 0 0 2.89992 0 6.47303C0 10.0461 2.9055 12.9461 6.4935 12.9461C10.088 12.9461 13 10.0461 13 6.47303C13 2.89992 10.088 0 6.4935 0ZM6.49981 11.6514C3.62681 11.6514 1.2998 9.33405 1.2998 6.47297C1.2998 3.6119 3.62681 1.29455 6.49981 1.29455C9.37281 1.29455 11.6998 3.6119 11.6998 6.47297C11.6998 9.33405 9.37281 11.6514 6.49981 11.6514ZM6.31785 3.23653H6.35685C6.61685 3.23653 6.82485 3.44367 6.82485 3.70259V6.64135L9.34035 8.13014C9.56785 8.2596 9.63935 8.55089 9.50285 8.77097C9.37285 8.99106 9.08685 9.05579 8.86585 8.92633L6.16835 7.31454C5.96685 7.19803 5.84985 6.98442 5.84985 6.75786V3.70259C5.84985 3.44367 6.05785 3.23653 6.31785 3.23653Z" fill="#333333"/>
</svg>
