<svg width="20" height="20" viewBox="0 0 20 20" fill="none" xmlns="http://www.w3.org/2000/svg">
<path d="M19.7561 0.244355C19.5999 0.0881291 19.3879 0.000366211 19.167 0.000366211C18.946 0.000366211 18.7341 0.0881291 18.5778 0.244355L10.0003 8.82185L1.42281 0.244355C1.26654 0.0881291 1.05461 0.000366211 0.833644 0.000366211C0.612674 0.000366211 0.40075 0.0881291 0.244477 0.244355C0.0882511 0.400628 0.000488281 0.612551 0.000488281 0.833522C0.000488281 1.05449 0.0882511 1.26642 0.244477 1.42269L8.82198 10.0002L0.244477 18.5777C0.0882511 18.734 0.000488281 18.9459 0.000488281 19.1669C0.000488281 19.3878 0.0882511 19.5997 0.244477 19.756C0.40075 19.9122 0.612674 20 0.833644 20C1.05461 20 1.26654 19.9122 1.42281 19.756L10.0003 11.1785L18.5778 19.756C18.7341 19.9122 18.946 20 19.167 20C19.3879 20 19.5999 19.9122 19.7561 19.756C19.9124 19.5997 20.0001 19.3878 20.0001 19.1669C20.0001 18.9459 19.9124 18.734 19.7561 18.5777L11.1786 10.0002L19.7561 1.42269C19.9124 1.26642 20.0001 1.05449 20.0001 0.833522C20.0001 0.612551 19.9124 0.400628 19.7561 0.244355Z" fill="#353C46"/>
</svg>
