<svg width="25" height="24" viewBox="0 0 25 24" fill="none" xmlns="http://www.w3.org/2000/svg">
<path d="M23.9021 8.25L22.5609 8.6908C22.9107 9.75499 23.088 10.8683 23.088 11.9998C23.088 17.8382 18.3381 22.5881 12.4998 22.5881C9.78717 22.5881 7.24265 21.5754 5.29875 19.7645L7.32331 19.4995V18.3528L3.00018 18.4995L2.85272 22.5881H3.91879L4.26449 20.7246C5.1155 21.5271 6.0818 22.2079 7.12251 22.7304C8.80039 23.5727 10.6096 23.9998 12.4998 23.9998C15.7051 23.9998 18.7186 22.7516 20.9851 20.4851C23.2516 18.2186 24.4998 15.2052 24.4998 11.9998C24.4998 10.7183 24.2987 9.45668 23.9021 8.25Z" fill="#2A398C"/>
<path d="M19.8112 4.72442L20.7339 4.51171L20.04 3.86745C18.0002 1.97348 15.3223 0.909804 12.5 0.909804C6.38442 0.909804 1.4098 5.88442 1.4098 12C1.4098 13.0986 1.56919 14.1796 1.88431 15.2197L1.49939 15.3557C1.16919 14.2724 1.00196 13.1462 1.00196 12C1.00196 8.92782 2.19731 6.04208 4.36967 3.86967C6.54203 1.69727 9.42781 0.501961 12.5 0.501961C15.4616 0.501961 18.2671 1.63063 20.3905 3.63739L21.0897 4.29812L21.2318 3.3467L21.4374 1.9698L21.6252 1.95535L21.5152 5.01424L18.1784 5.12773V5.10086L19.8112 4.72442Z" stroke="#2A398C" stroke-width="1.00392"/>
<path d="M17.5 5H21.5V1" stroke="#2A398C" stroke-width="1.5" stroke-linecap="round" stroke-linejoin="round"/>
<path d="M7.5 19L3.5 19L3.5 23" stroke="#2A398C" stroke-width="1.5" stroke-linecap="round" stroke-linejoin="round"/>
<path d="M12.5 5.58301V18.4163" stroke="#2A398C" stroke-width="1.5" stroke-linecap="round" stroke-linejoin="round"/>
<path d="M15.4167 7.91699H11.0417C10.5002 7.91699 9.98088 8.1321 9.59799 8.51498C9.2151 8.89787 9 9.41718 9 9.95866C9 10.5001 9.2151 11.0194 9.59799 11.4023C9.98088 11.7852 10.5002 12.0003 11.0417 12.0003H13.9583C14.4998 12.0003 15.0191 12.2154 15.402 12.5983C15.7849 12.9812 16 13.5005 16 14.042C16 14.5835 15.7849 15.1028 15.402 15.4857C15.0191 15.8686 14.4998 16.0837 13.9583 16.0837H9" stroke="#2A398C" stroke-width="1.5" stroke-linecap="round" stroke-linejoin="round"/>
</svg>
