<svg width="19" height="12" viewBox="0 0 19 12" fill="none" xmlns="http://www.w3.org/2000/svg">
<path fill-rule="evenodd" clip-rule="evenodd" d="M6.73486 0.69295C6.40511 0.498503 5.99507 0.501463 5.66818 0.700672L4.76528 1.25092C4.21318 1.58738 4.10007 2.34146 4.52918 2.82509L6.94723 5.55029C6.50074 5.81365 5.90785 6.17121 5.06012 6.6924L3.45273 5.54466C3.14203 5.32282 2.7348 5.28863 2.39166 5.45451L1.48332 5.89361C0.967709 6.14287 0.746875 6.76533 1.00407 7.28527C1.4134 8.11276 2.6722 10.5611 2.70194 10.6181C3.25391 11.6764 4.5426 12.1136 5.63485 11.6058L5.63722 11.6047L17.4105 6.21537L17.4127 6.21435C18.661 5.63225 19.2285 4.15574 18.6763 2.89222C18.2352 1.88327 17.1904 1.28485 16.0967 1.41142L14.3437 1.61432C13.7349 1.68478 13.1483 1.8889 12.6254 2.21152C11.9868 2.60562 11.4522 2.9332 11.0001 3.20817L6.73486 0.69295ZM5.83825 2.21662L6.21089 1.98955L11.5065 5.11243L9.33937 6.16248L5.83825 2.21662ZM12.3502 4.00436L12.7647 4.24881C13.4778 4.66934 13.4352 5.71474 12.6901 6.07574L9.7068 7.52125C9.28873 7.72382 8.78696 7.62371 8.47863 7.27622L7.88292 6.60485C7.39439 6.88956 6.70483 7.30354 5.59553 7.98682C5.25269 8.19801 4.79452 8.20215 4.44309 7.95121L2.81275 6.78709L2.40069 6.98629C2.62063 7.42369 2.93727 8.04502 3.22668 8.61084C3.45959 9.06628 3.69292 9.52151 3.92706 9.97631L3.9282 9.97853C4.13636 10.3777 4.62657 10.55 5.05273 10.3512L5.05494 10.3502L16.8282 4.9609L16.8301 4.96002C17.4039 4.69124 17.6571 4.01387 17.409 3.44612C17.2124 2.99613 16.7476 2.72833 16.2556 2.78532L14.5027 2.98818C14.0961 3.03523 13.703 3.17171 13.3517 3.38849C12.9854 3.6145 12.6529 3.81894 12.3502 4.00436Z" fill="#E8952F"/>
</svg>
