<svg width="17" height="13" viewBox="0 0 17 13" fill="none" xmlns="http://www.w3.org/2000/svg">
<path fill-rule="evenodd" clip-rule="evenodd" d="M10.0958 1.08058C10.0097 0.707559 9.72528 0.412233 9.35574 0.312327L8.33502 0.0363983C7.71088 -0.13233 7.08614 0.304842 7.03085 0.949034L6.7194 4.579C6.22099 4.43653 5.55346 4.25275 4.5918 3.99682L4.31743 2.04087C4.26439 1.66281 4.00879 1.34394 3.65223 1.2093L2.70837 0.852897C2.17259 0.650596 1.56913 0.919022 1.36915 1.46353C1.05088 2.33013 0.142067 4.92875 0.121201 4.98957C-0.266303 6.11859 0.303949 7.35416 1.42428 7.79662L1.42672 7.79758L13.4413 12.625L13.4436 12.6259C14.7252 13.1304 16.1867 12.5253 16.7228 11.2549C17.1509 10.2403 16.8654 9.07059 16.0206 8.36456L14.6665 7.23298C14.1962 6.83996 13.6443 6.55509 13.0503 6.39807C12.3248 6.20626 11.7192 6.04414 11.2084 5.90554L10.0958 1.08058ZM8.37345 1.47944L8.7947 1.59333L10.1761 7.58397L7.92248 6.73531L8.37345 1.47944ZM11.5606 7.43287L11.6687 7.9018C11.8548 8.70852 11.0673 9.39734 10.2925 9.1056L7.19007 7.93733C6.75532 7.77361 6.48244 7.3408 6.52215 6.87794L6.59887 5.98366C6.05603 5.82541 5.28103 5.61037 4.02172 5.27635C3.63251 5.17313 3.31405 4.84371 3.25406 4.41607L2.97576 2.4322L2.54758 2.27052C2.38181 2.73119 2.14924 3.38862 1.93816 3.98809C1.76823 4.47057 1.59875 4.95323 1.43014 5.43618L1.42931 5.43853C1.28318 5.86431 1.49575 6.33844 1.93328 6.51068L1.93554 6.51158L13.9502 11.339L13.9521 11.3398C14.5421 11.5708 15.2077 11.2881 15.4485 10.7172C15.6396 10.2648 15.5137 9.74332 15.1337 9.4258L13.7796 8.29422C13.4655 8.03174 13.0959 7.84066 12.6968 7.73515C12.2807 7.62513 11.9035 7.52476 11.5606 7.43287Z" fill="#E8952F"/>
</svg>
