<svg width="14" height="14" viewBox="0 0 14 14" fill="none" xmlns="http://www.w3.org/2000/svg">
<g clip-path="url(#clip0_6442_37504)">
<path d="M6.68055 8.1776C4.19454 8.40232 2.30055 10.5029 2.33355 12.9989V13.1254C2.33355 13.6087 2.72531 14.0004 3.20855 14.0004C3.6918 14.0004 4.08355 13.6087 4.08355 13.1254V12.9639C4.05725 11.4314 5.18819 10.1245 6.70855 9.93053C8.31344 9.77139 9.74349 10.9434 9.90263 12.5483C9.91204 12.6432 9.9168 12.7384 9.91688 12.8338V13.1254C9.91688 13.6087 10.3086 14.0004 10.7919 14.0004C11.2751 14.0004 11.6669 13.6087 11.6669 13.1254V12.8338C11.664 10.2535 9.57002 8.16415 6.98981 8.167C6.88664 8.16713 6.7835 8.17066 6.68055 8.1776Z" fill="#E8952F"/>
<path d="M7.00024 7C8.93323 7 10.5002 5.43298 10.5002 3.5C10.5002 1.56702 8.93323 0 7.00024 0C5.06726 0 3.50024 1.56702 3.50024 3.5C3.50216 5.43219 5.06805 6.99806 7.00024 7ZM7.00024 1.75C7.96674 1.75 8.75024 2.53351 8.75024 3.5C8.75024 4.46649 7.96674 5.25 7.00024 5.25C6.03375 5.25 5.25024 4.46649 5.25024 3.5C5.25024 2.53351 6.03375 1.75 7.00024 1.75Z" fill="#E8952F"/>
</g>
<defs>
<clipPath id="clip0_6442_37504">
<rect width="14" height="14" fill="white"/>
</clipPath>
</defs>
</svg>
