<svg width="18" height="18" viewBox="0 0 18 18" fill="none" xmlns="http://www.w3.org/2000/svg">
<path d="M11.8426 14.0324C11.9129 13.9626 11.9687 13.8797 12.0068 13.7883C12.0448 13.6969 12.0645 13.5989 12.0645 13.4999C12.0645 13.4009 12.0448 13.3028 12.0068 13.2114C11.9687 13.12 11.9129 13.0371 11.8426 12.9674L8.40761 9.53236C8.33732 9.46264 8.28152 9.37969 8.24344 9.28829C8.20537 9.1969 8.18576 9.09887 8.18576 8.99986C8.18576 8.90085 8.20537 8.80282 8.24344 8.71143C8.28152 8.62004 8.33732 8.53708 8.40761 8.46736L11.8426 5.03236C11.9129 4.96264 11.9687 4.87969 12.0068 4.78829C12.0448 4.6969 12.0645 4.59887 12.0645 4.49986C12.0645 4.40085 12.0448 4.30282 12.0068 4.21143C11.9687 4.12003 11.9129 4.03708 11.8426 3.96736C11.7021 3.82767 11.512 3.74927 11.3139 3.74927C11.1157 3.74927 10.9256 3.82767 10.7851 3.96736L7.34261 7.40986C6.92126 7.83174 6.68459 8.40361 6.68459 8.99986C6.68459 9.59611 6.92126 10.168 7.34261 10.5899L10.7851 14.0324C10.9256 14.1721 11.1157 14.2505 11.3139 14.2505C11.512 14.2505 11.7021 14.1721 11.8426 14.0324V14.0324Z" fill="#2A398C"/>
</svg>
