<svg width="487" height="571" viewBox="0 0 487 571" fill="none" xmlns="http://www.w3.org/2000/svg">
<path d="M483.642 0.0468599C317.444 18.6321 147.541 69.6595 136.275 224.1C131.048 296.334 154.899 350.592 181.796 402.977C114.251 340.995 16.7138 291.278 -120 303.403C-36.7233 325.405 61.5747 367.491 114.403 423.107C125.567 434.951 141.908 455.455 138.051 472.87C131.657 502.223 73.6525 496.231 38.5352 497.822C111.358 525.021 192.757 574.036 296.586 570.852C348.501 569.307 386.612 539.908 382.603 485.369C375.296 387.387 297.906 303.637 289.786 192.921C280.753 68.0211 374.89 22.1899 480.394 1.68524C482.525 2.29383 485.874 1.68546 486.737 1.03006C487.448 0.561919 486.788 0 483.895 0H483.642V0.0468599Z" fill="white" fill-opacity="0.02"/>
</svg>
