<svg width="20" height="18" viewBox="0 0 20 18" fill="none" xmlns="http://www.w3.org/2000/svg">
<path d="M7.4 7.05H19.4C19.51 7.05 19.6 6.96 19.6 6.85V5.45C19.6 5.34 19.51 5.25 19.4 5.25H7.4C7.29 5.25 7.2 5.34 7.2 5.45V6.85C7.2 6.96 7.29 7.05 7.4 7.05ZM7.2 12.15C7.2 12.26 7.29 12.35 7.4 12.35H19.4C19.51 12.35 19.6 12.26 19.6 12.15V10.75C19.6 10.64 19.51 10.55 19.4 10.55H7.4C7.29 10.55 7.2 10.64 7.2 10.75V12.15ZM19.8 0H0.2C0.09 0 0 0.09 0 0.2V1.6C0 1.71 0.09 1.8 0.2 1.8H19.8C19.91 1.8 20 1.71 20 1.6V0.2C20 0.09 19.91 0 19.8 0ZM19.8 15.8H0.2C0.09 15.8 0 15.89 0 16V17.4C0 17.51 0.09 17.6 0.2 17.6H19.8C19.91 17.6 20 17.51 20 17.4V16C20 15.89 19.91 15.8 19.8 15.8ZM0.0850001 8.9725L3.9925 12.05C4.1375 12.165 4.3525 12.0625 4.3525 11.8775V5.7225C4.3525 5.5375 4.14 5.435 3.9925 5.55L0.0850001 8.6275C0.0587256 8.64793 0.0374647 8.67409 0.0228396 8.70398C0.00821461 8.73388 0.000611877 8.76672 0.000611877 8.8C0.000611877 8.83328 0.00821461 8.86612 0.0228396 8.89602C0.0374647 8.92591 0.0587256 8.95207 0.0850001 8.9725Z" fill="white"/>
</svg>
