<svg width="20" height="18" viewBox="0 0 20 18" fill="none" xmlns="http://www.w3.org/2000/svg">
<path d="M7.4 7.05H19.4C19.51 7.05 19.6 6.96 19.6 6.85V5.45C19.6 5.34 19.51 5.25 19.4 5.25H7.4C7.29 5.25 7.2 5.34 7.2 5.45V6.85C7.2 6.96 7.29 7.05 7.4 7.05ZM7.2 12.15C7.2 12.26 7.29 12.35 7.4 12.35H19.4C19.51 12.35 19.6 12.26 19.6 12.15V10.75C19.6 10.64 19.51 10.55 19.4 10.55H7.4C7.29 10.55 7.2 10.64 7.2 10.75V12.15ZM19.8 0H0.2C0.09 0 0 0.09 0 0.2V1.6C0 1.71 0.09 1.8 0.2 1.8H19.8C19.91 1.8 20 1.71 20 1.6V0.2C20 0.09 19.91 0 19.8 0ZM19.8 15.8H0.2C0.09 15.8 0 15.89 0 16V17.4C0 17.51 0.09 17.6 0.2 17.6H19.8C19.91 17.6 20 17.51 20 17.4V16C20 15.89 19.91 15.8 19.8 15.8ZM4.26811 8.9725L0.360612 12.05C0.215612 12.165 0.000611877 12.0625 0.000611877 11.8775V5.7225C0.000611877 5.5375 0.213112 5.435 0.360612 5.55L4.26811 8.6275C4.29439 8.64793 4.31565 8.67409 4.33027 8.70398C4.3449 8.73388 4.3525 8.76672 4.3525 8.8C4.3525 8.83328 4.3449 8.86612 4.33027 8.89602C4.31565 8.92591 4.29439 8.95207 4.26811 8.9725Z" fill="white"/>
</svg>
