<svg width="27" height="24" viewBox="0 0 27 24" fill="none" xmlns="http://www.w3.org/2000/svg">
<g clip-path="url(#clip0_7774_37936)">
<path d="M25.2891 22L2.72613 22" stroke="#E8952F" stroke-width="1.5" stroke-linecap="round" stroke-linejoin="round"/>
<path d="M17.3922 11.4736L21.9048 11.4736C22.5279 11.4736 23.033 11.9449 23.033 12.5263L23.033 20.9473C23.033 21.5287 22.5279 21.9999 21.9048 21.9999L17.3922 21.9999C16.7692 21.9999 16.2641 21.5287 16.2641 20.9473L16.2641 12.5263C16.2641 11.9449 16.7692 11.4736 17.3922 11.4736Z" stroke="#E8952F" stroke-width="1.5" stroke-linejoin="round"/>
<path d="M6.11035 2L15.1355 2C15.7586 2 16.2637 2.47128 16.2637 3.05263L16.2637 20.9474C16.2637 21.5287 15.7586 22 15.1355 22L6.11035 22C5.4873 22 4.98221 21.5287 4.98221 20.9474L4.98221 3.05263C4.98221 2.47128 5.4873 2 6.11035 2Z" stroke="#E8952F" stroke-width="1.5" stroke-linejoin="round"/>
<path d="M11.7517 16.7412L9.49542 16.7412" stroke="#E8952F" stroke-width="1.5" stroke-linecap="round" stroke-linejoin="round"/>
<path d="M20.7769 16.7412L18.5206 16.7412" stroke="#E8952F" stroke-width="1.5" stroke-linecap="round" stroke-linejoin="round"/>
<path d="M11.7517 12.0044L9.49542 12.0044" stroke="#E8952F" stroke-width="1.5" stroke-linecap="round" stroke-linejoin="round"/>
<path d="M11.7517 7.26758L9.49542 7.26758" stroke="#E8952F" stroke-width="1.5" stroke-linecap="round" stroke-linejoin="round"/>
</g>
<defs>
<clipPath id="clip0_7774_37936">
<rect width="25.7217" height="24" fill="white" transform="matrix(-1 0 0 1 26.3608 0)"/>
</clipPath>
</defs>
</svg>
