<svg width="24" height="24" viewBox="0 0 24 24" fill="none" xmlns="http://www.w3.org/2000/svg">
<path d="M21 8.00002C22.1046 8.00002 23 8.89545 23 10V14C23 15.1046 22.1046 16 21 16H19.938C19.4336 20.0001 16.0317 23 12 23V21C15.3137 21 18 18.3137 18 15V9.00002C18 5.68631 15.3137 3.00002 12 3.00002C8.68629 3.00002 6 5.68631 6 9.00002V16H3C1.89543 16 1 15.1046 1 14V10C1 8.89545 1.89543 8.00002 3 8.00002H4.062C4.56691 4.00039 7.96862 1.0011 12 1.0011C16.0314 1.0011 19.4331 4.00039 19.938 8.00002H21ZM7.76 15.785L8.82 14.089C9.77308 14.6861 10.8754 15.0018 12 15C13.1246 15.0018 14.2269 14.6861 15.18 14.089L16.24 15.785C14.9693 16.5812 13.4995 17.0023 12 17C10.5005 17.0023 9.03074 16.5812 7.76 15.785Z" fill="black"/>
</svg>
