<svg width="23" height="15" viewBox="0 0 23 15" fill="none" xmlns="http://www.w3.org/2000/svg">
<path fill-rule="evenodd" clip-rule="evenodd" d="M7.78099 1.07067C7.39241 0.841534 6.90922 0.845022 6.524 1.07977L5.46001 1.7282C4.80941 2.12468 4.67612 3.0133 5.18179 3.58323L8.03125 6.79465C7.50511 7.10499 6.80643 7.52634 5.80745 8.14053L3.91328 6.78801C3.54715 6.52658 3.06726 6.4863 2.66289 6.68177L1.59249 7.19922C0.984888 7.49295 0.724654 8.22646 1.02773 8.83917C1.51009 9.8143 2.99349 12.6994 3.02853 12.7666C3.67899 14.0138 5.1976 14.529 6.48473 13.9305L6.48752 13.9292L20.3614 7.57839L20.364 7.57718C21.835 6.89122 22.5037 5.15128 21.853 3.66233C21.3332 2.47336 20.102 1.76818 18.8131 1.91733L16.7474 2.15644C16.0299 2.23947 15.3387 2.48 14.7226 2.86018C13.97 3.3246 13.34 3.71062 12.8072 4.03465L7.78099 1.07067ZM6.72442 2.8662L7.16354 2.5986L13.404 6.27866L10.8502 7.51606L6.72442 2.8662ZM14.3982 4.97289L14.8867 5.26096C15.727 5.75652 15.6767 6.98843 14.7988 7.41385L11.2832 9.11726C10.7905 9.35597 10.1992 9.238 9.83588 8.82851L9.13388 8.03736C8.5582 8.37286 7.74561 8.8607 6.43839 9.6659C6.03438 9.91477 5.49447 9.91964 5.08033 9.62393L3.15912 8.2521L2.67353 8.48685C2.93272 9.00229 3.30586 9.73447 3.6469 10.4013C3.92136 10.9379 4.19632 11.4744 4.47224 12.0103L4.47358 12.013C4.71888 12.4833 5.29655 12.6863 5.79875 12.4522L5.80135 12.451L19.6752 6.10009L19.6774 6.09906C20.3535 5.78233 20.652 4.9841 20.3595 4.31505C20.1279 3.78477 19.5802 3.4692 19.0004 3.53636L16.9347 3.77541C16.4556 3.83085 15.9924 3.99169 15.5784 4.24714C15.1468 4.51347 14.755 4.75439 14.3982 4.97289Z" fill="#E8952F"/>
</svg>
