<svg width="20" height="19" viewBox="0 0 20 19" fill="none" xmlns="http://www.w3.org/2000/svg">
<g clip-path="url(#clip0_6282_34950)">
<path d="M15.9969 2.44718L11.8172 1.12943C10.7146 0.814162 9.52504 0.922316 8.50613 1.43047C7.48722 1.93863 6.72099 2.80589 6.37338 3.84443L6.34483 3.94718H4.36207C3.20556 3.94837 2.09679 4.38335 1.27901 5.15668C0.461238 5.93001 0.00125958 6.97853 0 8.07218L0 14.8222C0.00125958 15.9158 0.461238 16.9644 1.27901 17.7377C2.09679 18.511 3.20556 18.946 4.36207 18.9472H8.32759C8.97651 18.947 9.6172 18.8097 10.2028 18.5454C10.7885 18.2811 11.3043 17.8964 11.7126 17.4194C12.734 17.547 13.77 17.3258 14.6343 16.7955C15.4986 16.2652 16.1345 15.4607 16.4276 14.5267L18.8759 7.54718C19.1958 6.50993 19.0736 5.39546 18.5356 4.4423C17.9975 3.48913 17.0863 2.77301 15.9969 2.44718ZM10.3103 14.8222C10.3103 15.3195 10.1015 15.7964 9.72961 16.148C9.35777 16.4996 8.85345 16.6972 8.32759 16.6972H4.36207C3.83621 16.6972 3.33189 16.4996 2.96005 16.148C2.58821 15.7964 2.37931 15.3195 2.37931 14.8222V8.07218C2.37931 7.5749 2.58821 7.09799 2.96005 6.74636C3.33189 6.39473 3.83621 6.19718 4.36207 6.19718H8.32759C8.85345 6.19718 9.35777 6.39473 9.72961 6.74636C10.1015 7.09799 10.3103 7.5749 10.3103 8.07218V14.8222ZM16.6044 6.87218L14.1569 13.8554C14.0563 14.1785 13.8652 14.4699 13.6039 14.6987C13.3425 14.9275 13.0206 15.0852 12.6722 15.1552C12.6809 15.0449 12.6897 14.9347 12.6897 14.8222V8.07218C12.6885 7.07772 12.3074 6.11713 11.6166 5.3673C10.9259 4.61746 9.97188 4.12885 8.93035 3.99143C9.16633 3.67304 9.50178 3.43248 9.88965 3.30349C10.2775 3.17451 10.6984 3.16356 11.0931 3.27218L15.2712 4.58993C15.7631 4.73244 16.1772 5.05019 16.426 5.47605C16.6747 5.90191 16.7387 6.40254 16.6044 6.87218Z" fill="white"/>
<path d="M7.75489 10.2806H7.0499V9.61393C7.0499 9.43712 6.97563 9.26755 6.84342 9.14253C6.71121 9.0175 6.5319 8.94727 6.34492 8.94727C6.15795 8.94727 5.97864 9.0175 5.84643 9.14253C5.71422 9.26755 5.63994 9.43712 5.63994 9.61393V10.2806H4.93496C4.74799 10.2806 4.56867 10.3508 4.43646 10.4759C4.30425 10.6009 4.22998 10.7705 4.22998 10.9473C4.22998 11.1241 4.30425 11.2936 4.43646 11.4187C4.56867 11.5437 4.74799 11.6139 4.93496 11.6139H5.63994V12.2806C5.63994 12.4574 5.71422 12.627 5.84643 12.752C5.97864 12.877 6.15795 12.9473 6.34492 12.9473C6.5319 12.9473 6.71121 12.877 6.84342 12.752C6.97563 12.627 7.0499 12.4574 7.0499 12.2806V11.6139H7.75489C7.94186 11.6139 8.12117 11.5437 8.25338 11.4187C8.38559 11.2936 8.45987 11.1241 8.45987 10.9473C8.45987 10.7705 8.38559 10.6009 8.25338 10.4759C8.12117 10.3508 7.94186 10.2806 7.75489 10.2806Z" fill="white"/>
</g>
<defs>
<clipPath id="clip0_6282_34950">
<rect width="19.0345" height="18" fill="white" transform="translate(0 0.947266)"/>
</clipPath>
</defs>
</svg>
