<svg width="23" height="15" viewBox="0 0 23 15" fill="none" xmlns="http://www.w3.org/2000/svg">
<path fill-rule="evenodd" clip-rule="evenodd" d="M7.781 1.07081C7.39243 0.841669 6.90923 0.845157 6.52402 1.07991L5.46003 1.72833C4.80942 2.12482 4.67613 3.01343 5.1818 3.58336L8.03127 6.79478C7.50512 7.10513 6.80645 7.52648 5.80746 8.14066L3.91329 6.78814C3.54716 6.52672 3.06727 6.48643 2.66291 6.68191L1.5925 7.19935C0.984901 7.49309 0.724667 8.2266 1.02774 8.83931C1.51011 9.81443 2.9935 12.6995 3.02855 12.7667C3.679 14.0139 5.19761 14.5291 6.48474 13.9307L6.48753 13.9294L20.3614 7.57852L20.364 7.57732C21.835 6.89136 22.5037 5.15142 21.853 3.66246C21.3333 2.4735 20.102 1.76831 18.8131 1.91747L16.7474 2.15657C16.0299 2.2396 15.3387 2.48013 14.7226 2.86032C13.97 3.32473 13.34 3.71075 12.8072 4.03479L7.781 1.07081ZM6.72443 2.86633L7.16355 2.59874L13.404 6.27879L10.8502 7.5162L6.72443 2.86633ZM14.3982 4.97303L14.8867 5.26109C15.7271 5.75665 15.6768 6.98857 14.7988 7.41398L11.2832 9.1174C10.7905 9.3561 10.1992 9.23814 9.83589 8.82865L9.1339 8.03749C8.55822 8.373 7.74562 8.86084 6.43841 9.66603C6.03439 9.9149 5.49448 9.91978 5.08035 9.62406L3.15913 8.25224L2.67355 8.48699C2.93273 9.00243 3.30587 9.7346 3.64691 10.4014C3.92137 10.9381 4.19633 11.4745 4.47226 12.0105L4.47359 12.0131C4.7189 12.4834 5.29656 12.6865 5.79876 12.4523L5.80136 12.4511L19.6752 6.10023L19.6775 6.09919C20.3535 5.78246 20.652 4.98424 20.3595 4.31519C20.128 3.78491 19.5802 3.46933 19.0004 3.5365L16.9347 3.77554C16.4556 3.83099 15.9924 3.99182 15.5784 4.24728C15.1468 4.51361 14.755 4.75452 14.3982 4.97303Z" fill="white"/>
</svg>
