<svg width="16" height="16" viewBox="0 0 16 16" fill="none" xmlns="http://www.w3.org/2000/svg">
<g clip-path="url(#clip0_6282_34944)">
<path d="M13.3332 9.42733V8C13.3317 7.06518 13.0846 6.14716 12.6166 5.33795C12.1486 4.52873 11.4761 3.85674 10.6665 3.38933V2.66667C10.6665 1.95942 10.3856 1.28115 9.88546 0.781049C9.38536 0.280952 8.70708 0 7.99984 0C7.29259 0 6.61432 0.280952 6.11422 0.781049C5.61412 1.28115 5.33317 1.95942 5.33317 2.66667V3.38933C4.52359 3.85674 3.85109 4.52873 3.38307 5.33795C2.91504 6.14716 2.66793 7.06518 2.6665 8V9.42733C2.09512 9.5738 1.58861 9.90598 1.22658 10.3717C0.864555 10.8374 0.66754 11.4101 0.666504 12V13.3333C0.666504 14.0406 0.947456 14.7189 1.44755 15.219C1.94765 15.719 2.62593 16 3.33317 16H12.6665C13.3737 16 14.052 15.719 14.5521 15.219C15.0522 14.7189 15.3332 14.0406 15.3332 13.3333V12C15.3321 11.4101 15.1351 10.8374 14.7731 10.3717C14.4111 9.90598 13.9046 9.5738 13.3332 9.42733ZM11.3332 14H4.6665V13.828C5.02374 13.2678 5.51643 12.8066 6.09904 12.4871C6.68165 12.1676 7.33538 12.0002 7.99984 12.0002C8.66429 12.0002 9.31802 12.1676 9.90063 12.4871C10.4832 12.8066 10.9759 13.2678 11.3332 13.828V14ZM11.3332 11.0247C10.3498 10.3569 9.18852 9.99983 7.99984 9.99983C6.81115 9.99983 5.64987 10.3569 4.6665 11.0247V8C4.6665 7.11595 5.01769 6.2681 5.64281 5.64298C6.26794 5.01786 7.11578 4.66667 7.99984 4.66667C8.88389 4.66667 9.73174 5.01786 10.3569 5.64298C10.982 6.2681 11.3332 7.11595 11.3332 8V11.0247ZM9.99984 7.66667C9.99984 7.93188 9.89448 8.18624 9.70694 8.37377C9.51941 8.56131 9.26505 8.66667 8.99984 8.66667H6.99984C6.73462 8.66667 6.48027 8.56131 6.29273 8.37377C6.10519 8.18624 5.99984 7.93188 5.99984 7.66667C5.99984 7.40145 6.10519 7.1471 6.29273 6.95956C6.48027 6.77202 6.73462 6.66667 6.99984 6.66667H8.99984C9.26505 6.66667 9.51941 6.77202 9.70694 6.95956C9.89448 7.1471 9.99984 7.40145 9.99984 7.66667Z" fill="white"/>
</g>
<defs>
<clipPath id="clip0_6282_34944">
<rect width="16" height="16" fill="white"/>
</clipPath>
</defs>
</svg>
