<svg width="14" height="12" viewBox="0 0 14 12" fill="none" xmlns="http://www.w3.org/2000/svg">
<path d="M11.375 2.49984H8.45833C7.76238 2.50061 7.09515 2.77742 6.60303 3.26953C6.11091 3.76165 5.83411 4.42888 5.83333 5.12484V7.1665H1.75V1.0415C1.75 0.80944 1.65781 0.58688 1.49372 0.422786C1.32962 0.258691 1.10706 0.166504 0.875 0.166504C0.642936 0.166504 0.420376 0.258691 0.256282 0.422786C0.0921872 0.58688 0 0.80944 0 1.0415L0 10.9582C0 11.1902 0.0921872 11.4128 0.256282 11.5769C0.420376 11.741 0.642936 11.8332 0.875 11.8332C1.10706 11.8332 1.32962 11.741 1.49372 11.5769C1.65781 11.4128 1.75 11.1902 1.75 10.9582V10.0832H12.25V10.9582C12.25 11.1902 12.3422 11.4128 12.5063 11.5769C12.6704 11.741 12.8929 11.8332 13.125 11.8332C13.3571 11.8332 13.5796 11.741 13.7437 11.5769C13.9078 11.4128 14 11.1902 14 10.9582V5.12484C13.9992 4.42888 13.7224 3.76165 13.2303 3.26953C12.7382 2.77742 12.071 2.50061 11.375 2.49984ZM12.25 7.1665H7.58333V5.12484C7.58333 4.89277 7.67552 4.67021 7.83961 4.50612C8.00371 4.34202 8.22627 4.24984 8.45833 4.24984H11.375C11.6071 4.24984 11.8296 4.34202 11.9937 4.50612C12.1578 4.67021 12.25 4.89277 12.25 5.12484V7.1665ZM3.79167 7.1665C3.50324 7.1665 3.22128 7.08097 2.98146 6.92073C2.74164 6.76049 2.55472 6.53273 2.44434 6.26625C2.33396 5.99978 2.30508 5.70655 2.36135 5.42366C2.41762 5.14078 2.55652 4.88093 2.76047 4.67697C2.96442 4.47302 3.22427 4.33413 3.50716 4.27786C3.79005 4.22159 4.08327 4.25047 4.34975 4.36085C4.61622 4.47122 4.84398 4.65814 5.00423 4.89796C5.16447 5.13779 5.25 5.41974 5.25 5.70817C5.25 6.09494 5.09635 6.46588 4.82286 6.73937C4.54937 7.01286 4.17844 7.1665 3.79167 7.1665Z" fill="#E8952F"/>
</svg>
