<svg width="14" height="14" viewBox="0 0 14 14" fill="none" xmlns="http://www.w3.org/2000/svg">
<g clip-path="url(#clip0_6434_34384)">
<path d="M6.59302 0.267822C5.07967 0.26969 3.62884 0.870878 2.55874 1.93953C1.48864 3.00818 0.886636 4.45704 0.884766 5.96834C0.884766 7.50259 2.08078 9.64164 4.44074 12.3252C4.70987 12.6306 5.04106 12.8753 5.41227 13.0429C5.78348 13.2104 6.18619 13.2971 6.59357 13.2971C7.00095 13.2971 7.40365 13.2104 7.77486 13.0429C8.14607 12.8753 8.47727 12.6306 8.7464 12.3252C11.1053 9.64218 12.3013 7.50313 12.3013 5.96834C12.2994 4.45704 11.6974 3.00818 10.6273 1.93953C9.5572 0.870878 8.10637 0.26969 6.59302 0.267822V0.267822ZM7.52048 11.2514C7.40193 11.3786 7.2584 11.4801 7.09883 11.5495C6.93925 11.6189 6.76707 11.6548 6.59302 11.6548C6.41897 11.6548 6.24679 11.6189 6.08722 11.5495C5.92765 11.4801 5.78411 11.3786 5.66557 11.2514C3.66333 8.97386 2.51243 7.04818 2.51243 5.96888C2.51243 4.88897 2.94201 3.85329 3.70666 3.08968C4.4713 2.32608 5.50839 1.89708 6.58976 1.89708C7.67114 1.89708 8.70822 2.32608 9.47287 3.08968C10.2375 3.85329 10.6671 4.88897 10.6671 5.96888C10.6703 7.04818 9.52272 8.97386 7.52048 11.2514Z" fill="#E8952F"/>
<path d="M6.59311 3.55542C6.12399 3.55542 5.6654 3.69434 5.27534 3.95462C4.88528 4.21489 4.58127 4.58483 4.40174 5.01766C4.22222 5.45048 4.17525 5.92675 4.26677 6.38623C4.35829 6.84571 4.58419 7.26778 4.91591 7.59904C5.24763 7.93031 5.67026 8.15591 6.13037 8.24731C6.59048 8.3387 7.06739 8.29179 7.5008 8.11251C7.93421 7.93323 8.30466 7.62963 8.56529 7.2401C8.82591 6.85057 8.96503 6.3926 8.96503 5.92412C8.96431 5.29612 8.71418 4.69405 8.26951 4.24999C7.82485 3.80593 7.22196 3.55614 6.59311 3.55542ZM6.59311 6.6641C6.44656 6.6641 6.30329 6.6207 6.18144 6.53939C6.05958 6.45808 5.96461 6.34251 5.90853 6.2073C5.85244 6.07208 5.83777 5.9233 5.86636 5.77976C5.89495 5.63621 5.96552 5.50436 6.06915 5.40087C6.17278 5.29739 6.30481 5.22691 6.44855 5.19836C6.59229 5.16981 6.74127 5.18446 6.87667 5.24047C7.01207 5.29647 7.1278 5.39132 7.20922 5.51301C7.29064 5.6347 7.3341 5.77777 7.3341 5.92412C7.33395 6.12033 7.25584 6.30846 7.11691 6.44721C6.97798 6.58595 6.78959 6.66396 6.59311 6.6641Z" fill="#E8952F"/>
</g>
<defs>
<clipPath id="clip0_6434_34384">
<rect width="13.0474" height="13.0297" fill="white" transform="translate(0.0693359 0.267822)"/>
</clipPath>
</defs>
</svg>
