<svg width="20" height="18" viewBox="0 0 20 18" fill="none" xmlns="http://www.w3.org/2000/svg">
<g clip-path="url(#clip0_6282_34958)">
<path d="M14.8661 3.75H12.8371C12.7358 2.72583 12.2287 1.7738 11.4149 1.08022C10.6012 0.386641 9.53948 0.00143846 8.4375 0L4.41964 0C3.24787 0.00119113 2.12446 0.436171 1.29589 1.2095C0.467326 1.98283 0.00127621 3.03135 0 4.125L0 13.875C0.00127621 14.9687 0.467326 16.0172 1.29589 16.7905C2.12446 17.5638 3.24787 17.9988 4.41964 18H14.8661C16.0378 17.9988 17.1613 17.5638 17.9898 16.7905C18.8184 16.0172 19.2844 14.9687 19.2857 13.875V7.875C19.2844 6.78135 18.8184 5.73283 17.9898 4.9595C17.1613 4.18617 16.0378 3.75119 14.8661 3.75ZM2.41071 13.875V4.125C2.41071 3.62772 2.62237 3.15081 2.99912 2.79917C3.37586 2.44754 3.88684 2.25 4.41964 2.25H8.4375C8.9703 2.25 9.48128 2.44754 9.85803 2.79917C10.2348 3.15081 10.4464 3.62772 10.4464 4.125V15.75H4.41964C3.88684 15.75 3.37586 15.5525 2.99912 15.2008C2.62237 14.8492 2.41071 14.3723 2.41071 13.875ZM16.875 13.875C16.875 14.3723 16.6633 14.8492 16.2866 15.2008C15.9099 15.5525 15.3989 15.75 14.8661 15.75H12.8571V6H14.8661C15.3989 6 15.9099 6.19754 16.2866 6.54917C16.6633 6.90081 16.875 7.37772 16.875 7.875V13.875ZM16.0714 8.625C16.0714 8.8475 16.0007 9.06501 15.8683 9.25002C15.7358 9.43502 15.5476 9.57922 15.3273 9.66436C15.1071 9.74951 14.8647 9.77179 14.6309 9.72838C14.3971 9.68498 14.1823 9.57783 14.0138 9.4205C13.8452 9.26316 13.7304 9.06271 13.6839 8.84448C13.6374 8.62625 13.6612 8.40005 13.7525 8.19448C13.8437 7.98891 13.9982 7.81321 14.1964 7.6896C14.3946 7.56598 14.6277 7.5 14.8661 7.5C15.1858 7.5 15.4923 7.61853 15.7184 7.8295C15.9444 8.04048 16.0714 8.32663 16.0714 8.625ZM16.0714 12.375C16.0714 12.5975 16.0007 12.815 15.8683 13C15.7358 13.185 15.5476 13.3292 15.3273 13.4144C15.1071 13.4995 14.8647 13.5218 14.6309 13.4784C14.3971 13.435 14.1823 13.3278 14.0138 13.1705C13.8452 13.0132 13.7304 12.8127 13.6839 12.5945C13.6374 12.3762 13.6612 12.15 13.7525 11.9445C13.8437 11.7389 13.9982 11.5632 14.1964 11.4396C14.3946 11.316 14.6277 11.25 14.8661 11.25C15.1858 11.25 15.4923 11.3685 15.7184 11.5795C15.9444 11.7905 16.0714 12.0766 16.0714 12.375ZM5.625 4.875C5.625 5.0975 5.55431 5.31501 5.42186 5.50002C5.28941 5.68502 5.10116 5.82922 4.88091 5.91436C4.66066 5.99951 4.41831 6.02179 4.18449 5.97838C3.95067 5.93498 3.7359 5.82783 3.56733 5.6705C3.39875 5.51316 3.28396 5.31271 3.23745 5.09448C3.19094 4.87625 3.21481 4.65005 3.30604 4.44448C3.39727 4.23891 3.55176 4.06321 3.74998 3.9396C3.9482 3.81598 4.18125 3.75 4.41964 3.75C4.73932 3.75 5.04591 3.86853 5.27196 4.0795C5.49801 4.29048 5.625 4.57663 5.625 4.875ZM5.625 8.625C5.625 8.8475 5.55431 9.06501 5.42186 9.25002C5.28941 9.43502 5.10116 9.57922 4.88091 9.66436C4.66066 9.74951 4.41831 9.77179 4.18449 9.72838C3.95067 9.68498 3.7359 9.57783 3.56733 9.4205C3.39875 9.26316 3.28396 9.06271 3.23745 8.84448C3.19094 8.62625 3.21481 8.40005 3.30604 8.19448C3.39727 7.98891 3.55176 7.81321 3.74998 7.6896C3.9482 7.56598 4.18125 7.5 4.41964 7.5C4.73932 7.5 5.04591 7.61853 5.27196 7.8295C5.49801 8.04048 5.625 8.32663 5.625 8.625ZM9.64286 4.875C9.64286 5.0975 9.57216 5.31501 9.43972 5.50002C9.30727 5.68502 9.11902 5.82922 8.89877 5.91436C8.67852 5.99951 8.43616 6.02179 8.20235 5.97838C7.96853 5.93498 7.75376 5.82783 7.58518 5.6705C7.41661 5.51316 7.30181 5.31271 7.2553 5.09448C7.20879 4.87625 7.23266 4.65005 7.3239 4.44448C7.41513 4.23891 7.56962 4.06321 7.76784 3.9396C7.96606 3.81598 8.1991 3.75 8.4375 3.75C8.75718 3.75 9.06377 3.86853 9.28982 4.0795C9.51587 4.29048 9.64286 4.57663 9.64286 4.875ZM9.64286 8.625C9.64286 8.8475 9.57216 9.06501 9.43972 9.25002C9.30727 9.43502 9.11902 9.57922 8.89877 9.66436C8.67852 9.74951 8.43616 9.77179 8.20235 9.72838C7.96853 9.68498 7.75376 9.57783 7.58518 9.4205C7.41661 9.26316 7.30181 9.06271 7.2553 8.84448C7.20879 8.62625 7.23266 8.40005 7.3239 8.19448C7.41513 7.98891 7.56962 7.81321 7.76784 7.6896C7.96606 7.56598 8.1991 7.5 8.4375 7.5C8.75718 7.5 9.06377 7.61853 9.28982 7.8295C9.51587 8.04048 9.64286 8.32663 9.64286 8.625ZM5.625 12.375C5.625 12.5975 5.55431 12.815 5.42186 13C5.28941 13.185 5.10116 13.3292 4.88091 13.4144C4.66066 13.4995 4.41831 13.5218 4.18449 13.4784C3.95067 13.435 3.7359 13.3278 3.56733 13.1705C3.39875 13.0132 3.28396 12.8127 3.23745 12.5945C3.19094 12.3762 3.21481 12.15 3.30604 11.9445C3.39727 11.7389 3.55176 11.5632 3.74998 11.4396C3.9482 11.316 4.18125 11.25 4.41964 11.25C4.73932 11.25 5.04591 11.3685 5.27196 11.5795C5.49801 11.7905 5.625 12.0766 5.625 12.375ZM9.64286 12.375C9.64286 12.5975 9.57216 12.815 9.43972 13C9.30727 13.185 9.11902 13.3292 8.89877 13.4144C8.67852 13.4995 8.43616 13.5218 8.20235 13.4784C7.96853 13.435 7.75376 13.3278 7.58518 13.1705C7.41661 13.0132 7.30181 12.8127 7.2553 12.5945C7.20879 12.3762 7.23266 12.15 7.3239 11.9445C7.41513 11.7389 7.56962 11.5632 7.76784 11.4396C7.96606 11.316 8.1991 11.25 8.4375 11.25C8.75718 11.25 9.06377 11.3685 9.28982 11.5795C9.51587 11.7905 9.64286 12.0766 9.64286 12.375Z" fill="#E8952F"/>
</g>
<defs>
<clipPath id="clip0_6282_34958">
<rect width="19.2857" height="18" fill="white"/>
</clipPath>
</defs>
</svg>
