<svg width="14" height="14" viewBox="0 0 14 14" fill="none" xmlns="http://www.w3.org/2000/svg">
<path d="M10.7917 1.16667H10.5V0.875C10.5 0.642936 10.4078 0.420376 10.2437 0.256282C10.0796 0.0921872 9.85706 0 9.625 0V0C9.39293 0 9.17038 0.0921872 9.00628 0.256282C8.84219 0.420376 8.75 0.642936 8.75 0.875V1.16667H5.25V0.875C5.25 0.642936 5.15781 0.420376 4.99372 0.256282C4.82962 0.0921872 4.60706 0 4.375 0V0C4.14294 0 3.92038 0.0921872 3.75628 0.256282C3.59219 0.420376 3.5 0.642936 3.5 0.875V1.16667H3.20833C2.35743 1.16667 1.54138 1.50469 0.939699 2.10637C0.33802 2.70805 0 3.5241 0 4.375L0 10.7917C0 11.6426 0.33802 12.4586 0.939699 13.0603C1.54138 13.662 2.35743 14 3.20833 14H10.7917C11.6426 14 12.4586 13.662 13.0603 13.0603C13.662 12.4586 14 11.6426 14 10.7917V4.375C14 3.5241 13.662 2.70805 13.0603 2.10637C12.4586 1.50469 11.6426 1.16667 10.7917 1.16667ZM10.7917 12.25H3.20833C2.82156 12.25 2.45063 12.0964 2.17714 11.8229C1.90365 11.5494 1.75 11.1784 1.75 10.7917V5.83333H12.25V10.7917C12.25 11.1784 12.0964 11.5494 11.8229 11.8229C11.5494 12.0964 11.1784 12.25 10.7917 12.25Z" fill="#E8952F"/>
</svg>
