<svg width="13" height="14" viewBox="0 0 13 14" fill="none" xmlns="http://www.w3.org/2000/svg">
<g clip-path="url(#clip0_8266_38243)">
<path d="M12.7622 11.7956L10.246 9.41478C12.1287 7.03512 11.6154 3.66245 9.09946 1.88173C6.58354 0.101012 3.01775 0.586556 1.13507 2.96622C-0.747609 5.34588 -0.234263 8.71855 2.28166 10.4993C4.30265 11.9297 7.07844 11.9297 9.09946 10.4993L11.6166 12.8801C11.933 13.1793 12.4458 13.1793 12.7621 12.8801C13.0785 12.5809 13.0785 12.0958 12.7621 11.7967L12.7622 11.7956ZM5.71154 10.0397C3.47551 10.0397 1.66287 8.32527 1.66287 6.21034C1.66287 4.09541 3.47551 2.38094 5.71154 2.38094C7.94757 2.38094 9.76021 4.09541 9.76021 6.21034C9.75783 8.32431 7.94658 10.0375 5.71154 10.0397Z" fill="#E8952F"/>
</g>
<defs>
<clipPath id="clip0_8266_38243">
<rect width="13" height="12.2959" fill="white" transform="translate(0 0.808594)"/>
</clipPath>
</defs>
</svg>
