<svg width="13" height="15" viewBox="0 0 13 15" fill="none" xmlns="http://www.w3.org/2000/svg">
<g clip-path="url(#clip0_17340_17889)">
<path d="M6.28308 14.9998C6.09993 14.9994 5.92295 14.934 5.7841 14.8146C4.19072 13.7795 2.79302 12.4709 1.65483 10.9494C0.636626 9.62344 0.0590917 8.01162 0.00390625 6.3407V6.32121C0.0115476 4.66067 0.675823 3.07013 1.8517 1.89762C3.02757 0.725113 4.6196 0.0653818 6.28015 0.0625H6.30013C7.12459 0.0625809 7.9412 0.22617 8.70197 0.543939C9.46273 0.861708 10.1524 1.32781 10.732 1.91419C11.3149 2.49743 11.7764 3.19018 12.0896 3.95299C12.4027 4.71581 12.5614 5.53366 12.5564 6.35824V6.43036C12.3769 8.70157 11.3642 10.8268 9.71309 12.3967C8.83142 13.3134 7.8466 14.1246 6.77816 14.8146C6.64063 14.9336 6.46495 14.999 6.28308 14.9998ZM6.28308 4.43053C5.75018 4.43106 5.23945 4.64334 4.86264 5.02015C4.48582 5.39696 4.27404 5.90818 4.27351 6.44108C4.27351 6.97441 4.48482 7.48557 4.86166 7.86298C5.23851 8.24038 5.74974 8.45278 6.28308 8.45357C6.81667 8.45304 7.32825 8.24038 7.70547 7.86298C8.08268 7.48557 8.29482 6.97468 8.29508 6.44108C8.29429 5.90757 8.08162 5.39605 7.704 5.01918C7.32638 4.6423 6.81463 4.43027 6.28113 4.43053H6.28308Z" fill="#F39F2D"/>
</g>
<defs>
<clipPath id="clip0_17340_17889">
<rect width="12.5524" height="14.9375" fill="white" transform="translate(0.00585938 0.0625)"/>
</clipPath>
</defs>
</svg>
