<svg width="99" height="56" viewBox="0 0 99 56" fill="none" xmlns="http://www.w3.org/2000/svg">
<path d="M12.2255 41.2573L8.09916 52.7694L4.38204 42.5739C4.26673 42.2132 4.0446 41.8949 3.74435 41.6602C3.44409 41.4254 3.07952 41.2851 2.69774 41.2573H0L0.088023 41.4924C0.43538 41.515 0.767614 41.6413 1.04076 41.8545C1.31391 42.0678 1.51509 42.358 1.61769 42.6868L6.46125 55.994H8.47385L13.748 41.2561H12.2255V41.2573Z" fill="white"/>
<path d="M18.2181 54.3786C18.2181 53.8802 18.2181 41.4617 18.2181 41.4617H15.5893V54.3869C15.5893 54.3869 15.531 55.995 16.9227 55.995H18.9579V55.8022C18.9579 55.8022 18.2181 55.6647 18.2181 54.3786Z" fill="white"/>
<path d="M33.7487 54.3354V41.522L33.7582 41.4562H32.3035V52.2336L24.4529 41.4644H20.6978L20.7239 41.6184C21.0135 41.8558 21.239 42.1604 21.3802 42.5051C21.5213 42.8498 21.5738 43.2237 21.5328 43.5933V55.5839C21.5328 55.6038 21.5423 55.6227 21.5423 55.6415V55.759C21.5423 55.7814 21.5328 55.8072 21.5328 55.8354V56H22.9923V43.7614L31.9264 55.9953H34.5611L34.5468 55.8084C34.2799 55.67 34.0612 55.4557 33.9189 55.1931C33.7766 54.9305 33.7173 54.6317 33.7487 54.3354Z" fill="white"/>
<path d="M40.836 41.4617H35.5594L35.5796 41.6157C35.5796 41.6157 36.3219 41.8649 36.4039 43.506V54.3869C36.4039 54.3869 36.3766 55.995 37.7266 55.995H39.8832V55.8175C39.6169 55.6869 39.3958 55.4814 39.2476 55.2268C39.0994 54.9722 39.0309 54.6799 39.0505 54.3869V49.198H41.2749C41.7959 49.205 46.1601 49.3461 46.1601 45.4668C46.1601 41.658 42.5096 41.4617 40.8348 41.4617H40.836ZM40.7063 47.9789C39.9153 47.9789 39.0494 47.9789 39.0494 47.9789V42.7007H40.7824C42.2978 42.7007 43.5182 43.0757 43.5182 45.4633C43.5182 47.7709 41.6686 47.9789 40.7015 47.9789" fill="white"/>
<path d="M56.6262 54.4879H51.05V49.3331H56.8879L56.9034 49.2591V47.8954L56.8879 47.819H51.05V42.9699H55.7948C56.8855 42.9699 57.2222 43.3319 57.3185 43.5906H57.5493L57.2805 42.0624C57.1377 41.8547 56.9406 41.6891 56.7102 41.5833C56.4798 41.4775 56.2247 41.4355 55.972 41.4617H47.5529L47.5767 41.6156C47.5767 41.6156 48.357 41.8766 48.3998 43.6576V55.9949H56.744C57.1183 56.0035 57.4842 55.8844 57.78 55.6576L58.006 53.8554H57.8205C57.6432 54.5326 56.7428 54.4879 56.6251 54.4879" fill="white"/>
<path d="M72.2381 54.379L68.6079 43.1196L68.678 43.3359C68.3628 42.3673 68.1606 41.7548 68.4223 41.4668L68.3985 41.3058H64.7956L62.3845 48.5495C61.2295 48.6165 60.0889 48.2687 59.1729 47.5703L59.142 47.7689C59.1265 47.7595 59.8128 49.0949 59.8438 49.122C60.489 49.574 61.2371 49.8619 62.0217 49.9601L60.0805 55.9942L60.1316 55.9883H61.7029L63.6644 50.0601H66.7285C67.0949 50.0282 67.4611 50.1239 67.7636 50.3306C68.0662 50.5373 68.2861 50.8421 68.3854 51.1921L69.4429 54.3778C69.4429 54.3778 69.8794 55.9883 71.0332 55.9883H73.1017L73.0934 55.8449C72.6069 55.6098 72.2607 54.4848 72.2334 54.3778L72.2381 54.379ZM66.6428 48.5542H64.0058L65.8173 43.0538L67.7419 48.7587C67.4075 48.5884 67.0303 48.5173 66.6559 48.5542" fill="white"/>
<path d="M84.9893 52.4417C84.5263 51.5758 84.0049 50.7416 83.4287 49.9448C83.0608 49.4834 82.6003 49.102 82.0763 48.8245C82.7191 48.6439 83.3006 48.2951 83.7595 47.8151C84.2185 47.3351 84.5379 46.7416 84.684 46.0971C84.8302 45.4527 84.7977 44.7812 84.5899 44.1535C84.3822 43.5258 84.0069 42.9652 83.5037 42.5307C82.5423 41.7758 81.3351 41.3941 80.1089 41.4574H74.1401L74.1663 41.6114C74.1663 41.6114 74.9085 41.8641 74.9834 43.5169V43.939C74.9834 44.0036 74.9953 44.0706 74.9953 44.1376V53.2716C74.9953 53.3351 74.9834 53.3998 74.9834 53.4644V55.9954H77.6169V49.6274H78.8195C80.3147 49.6274 80.9118 50.6854 82.1096 52.765C82.5524 53.5545 83.0351 54.3216 83.556 55.0632C83.7415 55.3675 84.0083 55.6154 84.327 55.7796C84.6458 55.9439 85.0042 56.0181 85.3628 55.9942H87.561V55.9883L87.5693 55.819C86.7878 55.6145 86.0884 54.3414 84.9846 52.4405L84.9893 52.4417ZM79.7211 48.0828H77.6122V42.6752H79.4713C79.8314 42.6436 80.1941 42.6895 80.5344 42.8099C80.8748 42.9302 81.1846 43.1222 81.4426 43.3724C81.7006 43.6227 81.9005 43.9253 82.0286 44.2593C82.1567 44.5934 82.2099 44.9509 82.1845 45.3073C82.2182 45.6512 82.1802 45.9983 82.0728 46.3271C81.9655 46.6559 81.791 46.9594 81.5602 47.219C81.3295 47.4785 81.0473 47.6886 80.7312 47.8361C80.4151 47.9837 80.0717 48.0656 79.7223 48.0769" fill="white"/>
<path d="M98.9703 54.4879H92.1331L92.1093 54.475V44.1666C92.1093 44.0491 92.1212 44.5699 92.1212 43.1862C92.1212 41.5029 90.7902 41.4617 90.7902 41.4617H88.6396L88.6658 41.6157C88.6658 41.6157 89.3795 41.8508 89.4794 43.4143V43.8563C89.4794 43.8986 89.4877 43.9433 89.4877 43.9821V53.1514C89.4877 53.1948 89.4794 53.2336 89.4794 53.2795V55.995H98.8061L99 54.4785L98.9703 54.4879Z" fill="white"/>
<path d="M67.8086 0.0029999C57.6707 1.1928 47.3067 4.4595 46.6195 14.3465C46.3006 18.9708 47.7556 22.4443 49.3962 25.798C45.276 21.83 39.3263 18.6472 30.9869 19.4234C36.0667 20.832 42.0628 23.5263 45.2853 27.0867C45.9663 27.8449 46.9631 29.1576 46.7278 30.2724C46.3378 32.1515 42.7996 31.7679 40.6574 31.8698C45.0996 33.6111 50.0649 36.7489 56.3984 36.5451C59.5651 36.4462 61.8899 34.5641 61.6454 31.0726C61.1996 24.8 56.4789 19.4384 55.9836 12.3505C55.4326 4.35461 61.1748 1.42056 67.6105 0.107887C67.7405 0.146847 67.9448 0.107901 67.9975 0.065943C68.0408 0.0359732 68.0006 0 67.8241 0H67.8086V0.0029999Z" fill="#E8952F"/>
</svg>
