<svg width="14" height="10" viewBox="0 0 14 10" fill="none" xmlns="http://www.w3.org/2000/svg">
<g clip-path="url(#clip0_17340_17895)">
<path d="M13.8835 1.50314L10.2642 5.18943C10.2578 5.19549 10.2528 5.20278 10.2493 5.21086C10.2459 5.21893 10.2441 5.22762 10.2441 5.2364C10.2441 5.24519 10.2459 5.25388 10.2493 5.26195C10.2528 5.27002 10.2578 5.27732 10.2642 5.28338L12.797 7.98213C12.8377 8.02271 12.87 8.07092 12.892 8.12401C12.9141 8.17709 12.9254 8.23401 12.9254 8.29148C12.9254 8.34896 12.9141 8.40588 12.892 8.45896C12.87 8.51205 12.8377 8.56026 12.797 8.60084C12.7148 8.68257 12.6036 8.72844 12.4876 8.72844C12.3717 8.72844 12.2605 8.68257 12.1783 8.60084L9.65545 5.91309C9.649 5.90632 9.64125 5.90092 9.63266 5.89724C9.62407 5.89355 9.61482 5.89165 9.60547 5.89165C9.59612 5.89165 9.58687 5.89355 9.57828 5.89724C9.56969 5.90092 9.56193 5.90632 9.55549 5.91309L8.93978 6.5388C8.68806 6.79587 8.38765 7.00022 8.05609 7.13991C7.72453 7.27961 7.36846 7.35185 7.00868 7.35242C6.64092 7.35102 6.27714 7.27622 5.93867 7.13238C5.6002 6.98855 5.29385 6.77859 5.03759 6.51481L4.44586 5.91509C4.43942 5.90831 4.43167 5.90292 4.42308 5.89923C4.41449 5.89555 4.40524 5.89365 4.39589 5.89365C4.38654 5.89365 4.37729 5.89555 4.3687 5.89923C4.36011 5.90292 4.35235 5.90831 4.34591 5.91509L1.82708 8.59984C1.74487 8.68157 1.63365 8.72744 1.51773 8.72744C1.4018 8.72744 1.29058 8.68157 1.20837 8.59984C1.16766 8.55926 1.13536 8.51105 1.11332 8.45796C1.09128 8.40488 1.07994 8.34796 1.07994 8.29049C1.07994 8.23301 1.09128 8.17609 1.11332 8.12301C1.13536 8.06992 1.16766 8.02171 1.20837 7.98113L3.74119 5.28238C3.75245 5.26932 3.75864 5.25265 3.75864 5.2354C3.75864 5.21816 3.75245 5.20149 3.74119 5.18843L0.117876 1.50314C0.108711 1.49342 0.0968109 1.48671 0.0837498 1.4839C0.0706887 1.48109 0.0570823 1.48231 0.0447309 1.4874C0.0323795 1.49249 0.0218653 1.50122 0.0145795 1.51242C0.00729367 1.52361 0.00357963 1.53676 0.00392879 1.55012V8.92669C0.00577217 9.21126 0.119907 9.48359 0.321506 9.68444C0.523104 9.88529 0.795856 9.99841 1.08043 9.99919H12.9209C13.2062 9.9984 13.4795 9.88473 13.6813 9.68302C13.883 9.48131 13.9966 9.20795 13.9974 8.92269V1.54712C13.9967 1.53423 13.9923 1.52183 13.9847 1.51139C13.9771 1.50096 13.9667 1.49293 13.9547 1.48829C13.9426 1.48364 13.9295 1.48257 13.9169 1.48521C13.9043 1.48784 13.8927 1.49407 13.8835 1.50314V1.50314Z" fill="#F39F2D"/>
<path d="M7.00105 6.47166C7.24608 6.47249 7.48878 6.42408 7.71474 6.3293C7.9407 6.23452 8.14532 6.0953 8.31644 5.91992L13.594 0.547417C13.4057 0.394824 13.1707 0.311547 12.9283 0.311526H1.0778C0.835329 0.310975 0.600134 0.394318 0.412109 0.547417L5.69166 5.91992C5.86207 6.09458 6.06571 6.23337 6.29059 6.32813C6.51546 6.42289 6.75703 6.47169 7.00105 6.47166Z" fill="#F39F2D"/>
</g>
<defs>
<clipPath id="clip0_17340_17895">
<rect width="13.9935" height="9.6875" fill="white" transform="translate(0.00390625 0.3125)"/>
</clipPath>
</defs>
</svg>
