<svg width="25" height="24" viewBox="0 0 25 24" fill="none" xmlns="http://www.w3.org/2000/svg">
<path fill-rule="evenodd" clip-rule="evenodd" d="M18.0382 2.75H18.0305H18.0022H17.9737H17.9452H17.9165H17.8877H17.8588H17.8298H17.8007H17.7715H17.7422H17.7127H17.6832H17.6536H17.6238H17.594H17.5641H17.5341H17.5039H17.4737H17.4434H17.413H17.3825H17.3518H17.3212H17.2904H17.2595H17.2285H17.1975H17.1663H17.1351H17.1038H17.0723H17.0409H17.0093H16.9776H16.9459H16.9141H16.8822H16.8502H16.8181H16.786H16.7538H16.7215H16.6891H16.6567H16.6242H16.5916H16.559H16.5262H16.4934H16.4606H16.4276H16.3947H16.3616H16.3285H16.2953H16.262H16.2287H16.1953H16.1619H16.1284H16.0948H16.0612H16.0276H15.9938H15.9601H15.9262H15.8923H15.8584H15.8244H15.7904H15.7563H15.7221H15.6879H15.6537H15.6194H15.5851H15.5507H15.5163H15.4819H15.4474H15.4128H15.3782H15.3436H15.309H15.2743H15.2395H15.2048H15.17H15.1351H15.1003H15.0654H15.0304H14.9955H14.9605H14.9255H14.8904H14.8554H14.8203H14.7851H14.75H14.7148H14.6796H14.6444H14.6092H14.574H14.5387H14.5034H14.4681H14.4328H14.3974H14.3621H14.3267H14.2914H14.256H14.2206H14.1852H14.1498H14.1143H14.0789H14.0435H14.0081H13.9726H13.9372H13.9017H13.8663H13.8308H13.7954H13.7599H13.7245H13.689H13.6536H13.6182H13.5827H13.5473H13.5119H13.4765H13.4411H13.4057H13.3703H13.335H13.2996H13.2643H13.229H13.1937H13.1584H13.1231H13.0878H13.0526H13.0174H12.9822H12.947H12.9119H12.8768H12.8417H12.8066H12.7715H12.7365H12.7015H12.6665H12.6316H12.5967H12.5618H12.527H12.4922H12.4574H12.4227H12.388H12.3533H12.3187H12.2841H12.2495H12.215H12.1806H12.1462H12.1118H12.0774H12.0431H12.0089H11.9747H11.9406H11.9065H11.8724H11.8384H11.8044H11.7705H11.7367H11.7029H11.6692H11.6355H11.6019H11.5683H11.5348H11.5013H11.468H11.4346H11.4014H11.3682H11.335H11.302H11.2689H11.236H11.2031H11.1703H11.1376H11.1049H11.0723H11.0398H11.0074H10.975H10.9427H10.9104H10.8783H10.8462H10.8142H10.7823H10.7505H10.7187H10.687H10.6555H10.6239H10.5925H10.5612H10.5299H10.4988H10.4677H10.4367H10.4058H10.375H10.3443H10.3137H10.2831H10.2527H10.2224H10.1921H10.162H10.1319H10.102H10.0721H10.0424H10.0127H9.98316H9.95372H9.92438H9.89514H9.86601H9.83699H9.80807H9.77927H9.75057H9.72198H9.69351H9.66515H9.6369H9.60876H9.58074H9.55283H9.52504H9.49737H9.46982H9.44238H9.41507H9.38788H9.3608H9.33386H9.30703H9.28033H9.25376H9.22731H9.20099H9.1748H9.14873H9.1228H9.097H9.07133H9.04579H9.02039H8.99512H8.96998H8.94498H8.92012H8.8954H8.87082H8.84637H8.82207H8.79791H8.77389H8.75001H8.72628H8.70269H8.67925H8.65596H8.63281H8.60982H8.58697H8.56427H8.54173H8.51933H8.4971H8.47501H8.45308H8.4313H8.40969H8.38823H8.36693H8.34578H8.3248H8.30398H8.28333H8.26283H8.2425H8.22233H8.20233H8.1825H8.16283H8.14334H8.12401H8.10485H8.08586H8.06705H8.04841H8.02994H8.01165H7.99353H7.97559H7.95782H7.94024H7.92283H7.9056H7.88856H7.87169H7.85501H7.83852H7.8222H7.80608H7.79014H7.77438H7.75882H7.74344H7.72825H7.71326H7.69845H7.68384H7.66942H7.6552H7.64117H7.62734H7.6137H7.60027H7.58703H7.57399H7.56115H7.54851H7.53608H7.52385H7.51182H7.5C7.13124 2.75 6.90453 2.84004 6.75978 2.93654C6.61033 3.03617 6.50133 3.17438 6.42082 3.33541C6.33884 3.49937 6.29411 3.67242 6.27105 3.8108C6.25981 3.87821 6.25448 3.93275 6.252 3.9675C6.25077 3.98474 6.25027 3.99672 6.25007 4.00253L6.25 4.00487V16.25H14.5C14.9142 16.25 15.25 16.5858 15.25 17V19.9951L15.2501 19.9975C15.2503 20.0033 15.2508 20.0153 15.252 20.0325C15.2545 20.0673 15.2598 20.1218 15.271 20.1892C15.2941 20.3276 15.3388 20.5006 15.4208 20.6646C15.5013 20.8256 15.6103 20.9638 15.7598 21.0635C15.9045 21.16 16.1312 21.25 16.5 21.25C16.8688 21.25 17.0955 21.16 17.2402 21.0635C17.3897 20.9638 17.4987 20.8256 17.5792 20.6646C17.6612 20.5006 17.7059 20.3276 17.729 20.1892C17.7402 20.1218 17.7455 20.0673 17.748 20.0325C17.7492 20.0153 17.7497 20.0033 17.7499 19.9975L17.75 19.9986L17.75 19.9974L17.75 19.9955L17.75 19.9941L17.75 19.9952V7V4H18.5C17.75 4 17.75 3.99963 17.75 3.99924L17.75 3.99844L17.75 3.99668L17.75 3.9926L17.7502 3.98217L17.7509 3.95255C17.7517 3.92906 17.7531 3.89807 17.7558 3.86063C17.7611 3.786 17.7714 3.68429 17.7915 3.5642C17.8275 3.34769 17.8978 3.05553 18.0382 2.75ZM17.75 19.9952L17.75 19.9974L17.7499 19.9975L17.75 19.9952ZM4.75 16.25V4H5.5C4.75 4 4.75 3.99963 4.75 3.99924L4.75 3.99844L4.75001 3.99668L4.75003 3.9926L4.75016 3.98217L4.7509 3.95255C4.75169 3.92906 4.75314 3.89807 4.75581 3.86063C4.76114 3.786 4.77144 3.68429 4.79145 3.5642C4.83089 3.32758 4.91116 3.00063 5.07918 2.66459C5.24867 2.32562 5.51467 1.96383 5.92772 1.68846C6.34547 1.40996 6.86876 1.25 7.5 1.25H7.51182H7.52385H7.53608H7.54851H7.56115H7.57399H7.58703H7.60027H7.6137H7.62734H7.64117H7.6552H7.66942H7.68384H7.69845H7.71326H7.72825H7.74344H7.75882H7.77438H7.79014H7.80608H7.8222H7.83852H7.85501H7.87169H7.88856H7.9056H7.92283H7.94024H7.95782H7.97559H7.99353H8.01165H8.02994H8.04841H8.06705H8.08586H8.10485H8.12401H8.14334H8.16283H8.1825H8.20233H8.22233H8.2425H8.26283H8.28333H8.30398H8.3248H8.34578H8.36693H8.38823H8.40969H8.4313H8.45308H8.47501H8.4971H8.51933H8.54173H8.56427H8.58697H8.60982H8.63281H8.65596H8.67925H8.70269H8.72628H8.75001H8.77389H8.79791H8.82207H8.84637H8.87082H8.8954H8.92012H8.94498H8.96998H8.99512H9.02039H9.04579H9.07133H9.097H9.1228H9.14873H9.1748H9.20099H9.22731H9.25376H9.28033H9.30703H9.33386H9.3608H9.38788H9.41507H9.44238H9.46982H9.49737H9.52504H9.55283H9.58074H9.60876H9.6369H9.66515H9.69351H9.72198H9.75057H9.77927H9.80807H9.83699H9.86601H9.89514H9.92438H9.95372H9.98316H10.0127H10.0424H10.0721H10.102H10.1319H10.162H10.1921H10.2224H10.2527H10.2831H10.3137H10.3443H10.375H10.4058H10.4367H10.4677H10.4988H10.5299H10.5612H10.5925H10.6239H10.6555H10.687H10.7187H10.7505H10.7823H10.8142H10.8462H10.8783H10.9104H10.9427H10.975H11.0074H11.0398H11.0723H11.1049H11.1376H11.1703H11.2031H11.236H11.2689H11.302H11.335H11.3682H11.4014H11.4346H11.468H11.5013H11.5348H11.5683H11.6019H11.6355H11.6692H11.7029H11.7367H11.7705H11.8044H11.8384H11.8724H11.9065H11.9406H11.9747H12.0089H12.0431H12.0774H12.1118H12.1462H12.1806H12.215H12.2495H12.2841H12.3187H12.3533H12.388H12.4227H12.4574H12.4922H12.527H12.5618H12.5967H12.6316H12.6665H12.7015H12.7365H12.7715H12.8066H12.8417H12.8768H12.9119H12.947H12.9822H13.0174H13.0526H13.0878H13.1231H13.1584H13.1937H13.229H13.2643H13.2996H13.335H13.3703H13.4057H13.4411H13.4765H13.5119H13.5473H13.5827H13.6182H13.6536H13.689H13.7245H13.7599H13.7954H13.8308H13.8663H13.9017H13.9372H13.9726H14.0081H14.0435H14.0789H14.1143H14.1498H14.1852H14.2206H14.256H14.2914H14.3267H14.3621H14.3974H14.4328H14.4681H14.5034H14.5387H14.574H14.6092H14.6444H14.6796H14.7148H14.75H14.7851H14.8203H14.8554H14.8904H14.9255H14.9605H14.9955H15.0304H15.0654H15.1003H15.1351H15.17H15.2048H15.2395H15.2743H15.309H15.3436H15.3782H15.4128H15.4474H15.4819H15.5163H15.5507H15.5851H15.6194H15.6537H15.6879H15.7221H15.7563H15.7904H15.8244H15.8584H15.8923H15.9262H15.9601H15.9938H16.0276H16.0612H16.0948H16.1284H16.1619H16.1953H16.2287H16.262H16.2953H16.3285H16.3616H16.3947H16.4276H16.4606H16.4934H16.5262H16.559H16.5916H16.6242H16.6567H16.6891H16.7215H16.7538H16.786H16.8181H16.8502H16.8822H16.9141H16.9459H16.9776H17.0093H17.0409H17.0723H17.1038H17.1351H17.1663H17.1975H17.2285H17.2595H17.2904H17.3212H17.3518H17.3825H17.413H17.4434H17.4737H17.5039H17.5341H17.5641H17.594H17.6238H17.6536H17.6832H17.7127H17.7422H17.7715H17.8007H17.8298H17.8588H17.8877H17.9165H17.9452H17.9737H18.0022H18.0305H18.0587H18.0869H18.1149H18.1427H18.1705H18.1982H18.2257H18.2531H18.2804H18.3075H18.3346H18.3615H18.3883H18.415H18.4415H18.468H18.4943H18.5204H18.5465H18.5724H18.5981H18.6238H18.6493H18.6747H18.6999H18.725H18.75H18.7748H18.7995H18.8241H18.8485H18.8728H18.8969H18.9209H18.9447H18.9685H18.992H19.0154H19.0387H19.0618H19.0848H19.1076H19.1302H19.1528H19.1751H19.1973H19.2194H19.2413H19.263H19.2846H19.306H19.3273H19.3484H19.3694H19.3902H19.4108H19.4312H19.4515H19.4717H19.4916H19.5114H19.5311H19.5505H19.5698H19.589H19.6079H19.6267H19.6453H19.6637H19.682H19.7001H19.718H19.7357H19.7533H19.7706H19.7878H19.8048H19.8217H19.8383H19.8548H19.871H19.8871H19.903H19.9187H19.9343H19.9496H19.9648H19.9797H19.9945H20.0091H20.0234H20.0376H20.0516H20.0654H20.079H20.0924H20.1056H20.1186H20.1314H20.144H20.1564H20.1686H20.1806H20.1923H20.2039H20.2153H20.2264H20.2374H20.2481H20.2587H20.269H20.2791H20.289H20.2987H20.3081H20.3174H20.3264H20.3352H20.3438H20.3522H20.3603H20.3683H20.376H20.3835H20.3907H20.3978H20.4046H20.4112H20.4175H20.4236H20.4296H20.4352H20.4407H20.4459H20.4508H20.4556H20.4601H20.4644H20.4684H20.4722H20.4757H20.4791H20.4821H20.485H20.4876H20.4899H20.492H20.4939H20.4955H20.4969H20.498H20.4989H20.4995H20.4999C20.4999 1.25 20.5 1.25 20.5 1.25C21.1312 1.25 21.6545 1.40996 22.0723 1.68846C22.4853 1.96383 22.7513 2.32562 22.9208 2.66459C23.0888 3.00063 23.1691 3.32758 23.2085 3.5642C23.2286 3.68429 23.2389 3.786 23.2442 3.86063C23.2469 3.89807 23.2483 3.92906 23.2491 3.95255L23.2498 3.98217L23.25 3.9926L23.25 3.99668L23.25 3.99844L23.25 3.99924C23.25 3.99963 23.25 4 22.5 4H23.25V7C23.25 7.41421 22.9142 7.75 22.5 7.75H19.25V20H18.5C19.25 20 19.25 20.0004 19.25 20.0008L19.25 20.0016L19.25 20.0033L19.25 20.0074L19.2498 20.0178L19.2491 20.0474C19.2483 20.0709 19.2469 20.1019 19.2442 20.1394C19.2389 20.214 19.2286 20.3157 19.2085 20.4358C19.1691 20.6724 19.0888 20.9994 18.9208 21.3354C18.7513 21.6744 18.4853 22.0362 18.0723 22.3115C17.6545 22.59 17.1312 22.75 16.5 22.75H16.4882H16.4763H16.4642H16.452H16.4397H16.4272H16.4146H16.4019H16.389H16.376H16.3629H16.3496H16.3362H16.3227H16.3091H16.2953H16.2814H16.2673H16.2532H16.2389H16.2245H16.2099H16.1952H16.1804H16.1655H16.1505H16.1353H16.12H16.1046H16.0891H16.0734H16.0576H16.0417H16.0257H16.0096H15.9933H15.9769H15.9604H15.9438H15.9271H15.9103H15.8933H15.8762H15.8591H15.8418H15.8243H15.8068H15.7892H15.7714H15.7536H15.7356H15.7175H15.6993H15.681H15.6626H15.6441H15.6255H15.6068H15.5879H15.569H15.5499H15.5308H15.5115H15.4922H15.4727H15.4532H15.4335H15.4137H15.3939H15.3739H15.3538H15.3337H15.3134H15.293H15.2726H15.252H15.2314H15.2106H15.1898H15.1688H15.1478H15.1267H15.1054H15.0841H15.0627H15.0412H15.0196H14.9979H14.9762H14.9543H14.9324H14.9103H14.8882H14.866H14.8437H14.8213H14.7988H14.7763H14.7536H14.7309H14.7081H14.6852H14.6622H14.6391H14.616H14.5928H14.5695H14.5461H14.5226H14.4991H14.4755H14.4518H14.428H14.4042H14.3802H14.3562H14.3322H14.308H14.2838H14.2595H14.2351H14.2107H14.1861H14.1616H14.1369H14.1122H14.0874H14.0625H14.0376H14.0126H13.9875H13.9623H13.9371H13.9119H13.8865H13.8611H13.8357H13.8101H13.7845H13.7589H13.7332H13.7074H13.6815H13.6556H13.6297H13.6037H13.5776H13.5514H13.5252H13.499H13.4727H13.4463H13.4199H13.3934H13.3669H13.3403H13.3136H13.2869H13.2602H13.2334H13.2065H13.1796H13.1527H13.1257H13.0986H13.0715H13.0444H13.0172H12.99H12.9627H12.9353H12.9079H12.8805H12.853H12.8255H12.798H12.7704H12.7427H12.715H12.6873H12.6595H12.6317H12.6039H12.576H12.5481H12.5201H12.4921H12.4641H12.436H12.4079H12.3797H12.3516H12.3233H12.2951H12.2668H12.2385H12.2102H12.1818H12.1534H12.1249H12.0965H12.068H12.0394H12.0109H11.9823H11.9537H11.925H11.8964H11.8677H11.839H11.8102H11.7814H11.7527H11.7238H11.695H11.6662H11.6373H11.6084H11.5795H11.5505H11.5216H11.4926H11.4636H11.4346H11.4055H11.3765H11.3474H11.3183H11.2893H11.2601H11.231H11.2019H11.1727H11.1436H11.1144H11.0852H11.056H11.0268H10.9976H10.9684H10.9392H10.9099H10.8807H10.8514H10.8221H10.7929H10.7636H10.7343H10.705H10.6758H10.6465H10.6172H10.5879H10.5586H10.5293H10.5H10.4707H10.4414H10.4121H10.3828H10.3535H10.3242H10.295H10.2657H10.2364H10.2071H10.1779H10.1486H10.1193H10.0901H10.0608H10.0316H10.0024H9.97318H9.94397H9.91478H9.88559H9.85642H9.82726H9.79811H9.76898H9.73985H9.71074H9.68165H9.65257H9.62351H9.59446H9.56543H9.53642H9.50742H9.47844H9.44948H9.42054H9.39162H9.36273H9.33385H9.30499H9.27616H9.24734H9.21855H9.18979H9.16105H9.13233H9.10364H9.07497H9.04633H9.01772H8.98913H8.96058H8.93205H8.90355H8.87508H8.84664H8.81823H8.78985H8.7615H8.73318H8.7049H8.67665H8.64844H8.62026H8.59211H8.564H8.53592H8.50789H8.47989H8.45192H8.424H8.39611H8.36826H8.34045H8.31269H8.28496H8.25727H8.22963H8.20203H8.17447H8.14695H8.11948H8.09205H8.06467H8.03734H8.01005H7.9828H7.95561H7.92846H7.90136H7.87431H7.84731H7.82035H7.79345H7.7666H7.7398H7.71306H7.68636H7.65972H7.63313H7.6066H7.58012H7.5537H7.52733H7.50102H7.47476H7.44856H7.42243H7.39634H7.37032H7.34436H7.31846H7.29262H7.26684H7.24112H7.21546H7.18987H7.16434H7.13887H7.11347H7.08813H7.06286H7.03765H7.01251H6.98744H6.96244H6.9375H6.91263H6.88783H6.8631H6.83845H6.81386H6.78934H6.7649H6.74052H6.71623H6.692H6.66785H6.64377H6.61977H6.59584H6.57199H6.54822H6.52452H6.5009H6.47736H6.4539H6.43052H6.40722H6.384H6.36086H6.3378H6.31482H6.29192H6.26911H6.24639H6.22374H6.20118H6.17871H6.15632H6.13402H6.11181H6.08968H6.06764H6.04569H6.02383H6.00206H5.98038H5.95879H5.93729H5.91588H5.89456H5.87334H5.85221H5.83118H5.81024H5.78939H5.76864H5.74798H5.72743H5.70696H5.6866H5.66634H5.64617H5.6261H5.60613H5.58627H5.5665H5.54684H5.52727H5.50781H5.48845H5.4692H5.45005H5.43101H5.41207H5.39323H5.3745H5.35588H5.33737H5.31896H5.30066H5.28247H5.26439H5.24642H5.22856H5.21082H5.19318H5.17565H5.15824H5.14094H5.12376H5.10669H5.08973H5.07289H5.05617H5.03956H5.02307H5.00669H4.99044H4.9743H4.95828H4.94238H4.9266H4.91095H4.89541H4.88H4.8647H4.84953H4.83449H4.81956H4.80477H4.79009H4.77555H4.76113H4.74683H4.73266H4.71862H4.70471H4.69093H4.67728H4.66375H4.65036H4.6371H4.62396H4.61097H4.5981H4.58537H4.57277H4.5603H4.54797H4.53577H4.52371H4.51179H4.5C3.86876 22.75 3.34547 22.59 2.92772 22.3115C2.51467 22.0362 2.24867 21.6744 2.07918 21.3354C1.91116 20.9994 1.83089 20.6724 1.79145 20.4358C1.77144 20.3157 1.76114 20.214 1.75581 20.1394C1.75314 20.1019 1.75169 20.0709 1.7509 20.0474L1.75016 20.0178L1.75003 20.0074L1.75001 20.0033L1.75 20.0016V20.0008C1.75 20.0004 1.75 20 2.5 20H1.75V17C1.75 16.5858 2.08579 16.25 2.5 16.25H4.75ZM21.75 6.25H19.25V4.00488L19.2501 4.00253C19.2503 3.99672 19.2508 3.98474 19.252 3.9675C19.2545 3.93275 19.2598 3.87821 19.271 3.8108C19.2941 3.67242 19.3388 3.49937 19.4208 3.33541C19.5013 3.17438 19.6103 3.03617 19.7598 2.93654C19.9045 2.84004 20.1312 2.75 20.5 2.75C20.8688 2.75 21.0955 2.84004 21.2402 2.93654C21.3897 3.03617 21.4987 3.17438 21.5792 3.33541C21.6612 3.49937 21.7059 3.67242 21.729 3.8108C21.7402 3.87821 21.7455 3.93275 21.748 3.9675C21.7492 3.98474 21.7497 3.99672 21.7499 4.00253L21.75 4.00489V6.25ZM19.2501 4.00253L19.25 4.00259L19.25 4.0045L19.25 4.00636C19.25 4.00661 19.25 4.0061 19.25 4.00488L19.25 4.00138L19.2501 4.00253ZM13.7915 20.4358C13.8275 20.6523 13.8978 20.9445 14.0382 21.25H14.0376H14.0126H13.9875H13.9623H13.9371H13.9119H13.8865H13.8611H13.8357H13.8101H13.7845H13.7589H13.7332H13.7074H13.6815H13.6556H13.6297H13.6037H13.5776H13.5514H13.5252H13.499H13.4727H13.4463H13.4199H13.3934H13.3669H13.3403H13.3136H13.2869H13.2602H13.2334H13.2065H13.1796H13.1527H13.1257H13.0986H13.0715H13.0444H13.0172H12.99H12.9627H12.9353H12.9079H12.8805H12.853H12.8255H12.798H12.7704H12.7427H12.715H12.6873H12.6595H12.6317H12.6039H12.576H12.5481H12.5201H12.4921H12.4641H12.436H12.4079H12.3797H12.3516H12.3233H12.2951H12.2668H12.2385H12.2102H12.1818H12.1534H12.1249H12.0965H12.068H12.0394H12.0109H11.9823H11.9537H11.925H11.8964H11.8677H11.839H11.8102H11.7814H11.7527H11.7238H11.695H11.6662H11.6373H11.6084H11.5795H11.5505H11.5216H11.4926H11.4636H11.4346H11.4055H11.3765H11.3474H11.3183H11.2893H11.2601H11.231H11.2019H11.1727H11.1436H11.1144H11.0852H11.056H11.0268H10.9976H10.9684H10.9392H10.9099H10.8807H10.8514H10.8221H10.7929H10.7636H10.7343H10.705H10.6758H10.6465H10.6172H10.5879H10.5586H10.5293H10.5H10.4707H10.4414H10.4121H10.3828H10.3535H10.3242H10.295H10.2657H10.2364H10.2071H10.1779H10.1486H10.1193H10.0901H10.0608H10.0316H10.0024H9.97318H9.94397H9.91478H9.88559H9.85642H9.82726H9.79811H9.76898H9.73985H9.71074H9.68165H9.65257H9.62351H9.59446H9.56543H9.53642H9.50742H9.47844H9.44948H9.42054H9.39162H9.36273H9.33385H9.30499H9.27616H9.24734H9.21855H9.18979H9.16105H9.13233H9.10364H9.07497H9.04633H9.01772H8.98913H8.96058H8.93205H8.90355H8.87508H8.84664H8.81823H8.78985H8.7615H8.73318H8.7049H8.67665H8.64844H8.62026H8.59211H8.564H8.53592H8.50789H8.47989H8.45192H8.424H8.39611H8.36826H8.34045H8.31269H8.28496H8.25727H8.22963H8.20203H8.17447H8.14695H8.11948H8.09205H8.06467H8.03734H8.01005H7.9828H7.95561H7.92846H7.90136H7.87431H7.84731H7.82035H7.79345H7.7666H7.7398H7.71306H7.68636H7.65972H7.63313H7.6066H7.58012H7.5537H7.52733H7.50102H7.47476H7.44856H7.42243H7.39634H7.37032H7.34436H7.31846H7.29262H7.26684H7.24112H7.21546H7.18987H7.16434H7.13887H7.11347H7.08813H7.06286H7.03765H7.01251H6.98744H6.96244H6.9375H6.91263H6.88783H6.8631H6.83845H6.81386H6.78934H6.7649H6.74052H6.71623H6.692H6.66785H6.64377H6.61977H6.59584H6.57199H6.54822H6.52452H6.5009H6.47736H6.4539H6.43052H6.40722H6.384H6.36086H6.3378H6.31482H6.29192H6.26911H6.24639H6.22374H6.20118H6.17871H6.15632H6.13402H6.11181H6.08968H6.06764H6.04569H6.02383H6.00206H5.98038H5.95879H5.93729H5.91588H5.89456H5.87334H5.85221H5.83118H5.81024H5.78939H5.76864H5.74798H5.72743H5.70696H5.6866H5.66634H5.64617H5.6261H5.60613H5.58627H5.5665H5.54684H5.52727H5.50781H5.48845H5.4692H5.45005H5.43101H5.41207H5.39323H5.3745H5.35588H5.33737H5.31896H5.30066H5.28247H5.26439H5.24642H5.22856H5.21082H5.19318H5.17565H5.15824H5.14094H5.12376H5.10669H5.08973H5.07289H5.05617H5.03956H5.02307H5.00669H4.99044H4.9743H4.95828H4.94238H4.9266H4.91095H4.89541H4.88H4.8647H4.84953H4.83449H4.81956H4.80477H4.79009H4.77555H4.76113H4.74683H4.73266H4.71862H4.70471H4.69093H4.67728H4.66375H4.65036H4.6371H4.62396H4.61097H4.5981H4.58537H4.57277H4.5603H4.54797H4.53577H4.52371H4.51179H4.5C4.13124 21.25 3.90453 21.16 3.75978 21.0635C3.61033 20.9638 3.50133 20.8256 3.42082 20.6646C3.33884 20.5006 3.29411 20.3276 3.27105 20.1892C3.25981 20.1218 3.25448 20.0673 3.252 20.0325C3.25077 20.0153 3.25027 20.0033 3.25007 19.9975L3.25 19.9951V17.75H5.5H13.75V20H14.5C13.75 20 13.75 20.0004 13.75 20.0008L13.75 20.0016L13.75 20.0033L13.75 20.0074L13.7502 20.0178L13.7509 20.0474C13.7517 20.0709 13.7531 20.1019 13.7558 20.1394C13.7611 20.214 13.7714 20.3157 13.7915 20.4358Z" fill="#2A398C"/>
<path d="M9.5 8H14.5" stroke="#2A398C" stroke-width="1.5" stroke-linecap="round" stroke-linejoin="round"/>
<path d="M9.5 12H14.5" stroke="#2A398C" stroke-width="1.5" stroke-linecap="round" stroke-linejoin="round"/>
</svg>
