<svg width="14" height="14" viewBox="0 0 14 14" fill="none" xmlns="http://www.w3.org/2000/svg">
<g clip-path="url(#clip0_17340_17904)">
<path d="M0.349132 2.43388C0.568708 2.06858 1.78137 0.744142 2.6467 0.783067C2.90559 0.822541 3.14307 0.949738 3.3194 1.14337C3.98505 1.84429 4.56164 2.6247 5.03608 3.46688C5.20675 4.27932 4.23762 4.74841 4.53006 5.56783C4.87552 6.4544 5.40141 7.25952 6.07439 7.93216C6.74737 8.60479 7.55277 9.13027 8.43951 9.47528C9.25793 9.7747 9.72702 8.80358 10.5355 8.97624C11.3777 9.45057 12.1581 10.0272 12.859 10.6929C13.0524 10.8693 13.1793 11.1068 13.2183 11.3656C13.2502 12.2759 11.8429 13.5065 11.5685 13.6612C11.1871 13.8905 10.7496 14.0097 10.3045 14.0055C9.85948 14.0013 9.42432 13.8738 9.04734 13.6372C6.17688 12.4396 1.58475 7.93925 0.364104 4.96C0.128691 4.58134 0.00268484 4.14492 4.24305e-05 3.69905C-0.00259998 3.25319 0.118224 2.8153 0.349132 2.43388Z" fill="#F39F2D"/>
<path d="M8.40234 0.957031C9.65246 1.09582 10.8183 1.65548 11.7084 2.54415C12.5985 3.43282 13.1601 4.5977 13.3009 5.84759" stroke="#F39F2D" stroke-width="0.998073" stroke-miterlimit="10" stroke-linecap="round" stroke-linejoin="round"/>
<path d="M8.40234 3.42188C9.00473 3.53891 9.55841 3.83327 9.99232 4.26719C10.4262 4.70111 10.7206 5.25478 10.8376 5.85717" stroke="#F39F2D" stroke-width="0.998073" stroke-miterlimit="10" stroke-linecap="round" stroke-linejoin="round"/>
</g>
<defs>
<clipPath id="clip0_17340_17904">
<rect width="13.8443" height="13.5938" fill="white" transform="translate(0.0078125 0.40625)"/>
</clipPath>
</defs>
</svg>
