<svg width="16" height="17" viewBox="0 0 16 17" fill="none" xmlns="http://www.w3.org/2000/svg">
<g clip-path="url(#clip0)">
<path d="M6.08001 16.2922C6.04001 16.2922 5.99876 16.2848 5.95876 16.2686C5.81626 16.2101 5.73501 16.0582 5.76751 15.9076L6.96626 10.2375H4.16001C4.04126 10.2375 3.93251 10.1727 3.87751 10.0682C3.82126 9.96361 3.82876 9.83664 3.89501 9.73954L9.33501 1.77274C9.42251 1.64701 9.58501 1.59971 9.72501 1.65946C9.86626 1.71921 9.94501 1.86859 9.91376 2.01797L8.71376 7.68809H11.2C11.3163 7.68809 11.425 7.75158 11.4813 7.85365C11.5375 7.95573 11.5325 8.08021 11.47 8.17855L6.35001 16.1454C6.28876 16.24 6.18626 16.2922 6.08001 16.2922Z" fill="#333"/>
</g>
<defs>
<clipPath id="clip0">
<rect width="16" height="15.9336" fill="white" transform="translate(0 0.99585)"/>
</clipPath>
</defs>
</svg>
