<svg width="14" height="14" viewBox="0 0 14 14" fill="none" xmlns="http://www.w3.org/2000/svg">
<path fill-rule="evenodd" clip-rule="evenodd" d="M7.00001 0C5.61554 0 4.26216 0.410543 3.11101 1.17971C1.95987 1.94888 1.06266 3.04214 0.532847 4.32122C0.00303302 5.6003 -0.135591 7.00777 0.134506 8.36564C0.404603 9.72351 1.07129 10.9708 2.05026 11.9498C3.02923 12.9287 4.27651 13.5954 5.63438 13.8655C6.99225 14.1356 8.39971 13.997 9.6788 13.4672C10.9579 12.9374 12.0511 12.0401 12.8203 10.889C13.5895 9.73786 14 8.38448 14 7.00001C13.998 5.14411 13.2599 3.36479 11.9475 2.05247C10.6352 0.740151 8.85591 0.0020073 7.00001 0ZM7.00001 12.25C5.96166 12.25 4.94662 11.9421 4.08326 11.3652C3.2199 10.7884 2.547 9.96841 2.14964 9.0091C1.75228 8.04978 1.64831 6.99418 1.85088 5.97578C2.05345 4.95738 2.55347 4.02192 3.2877 3.28769C4.02192 2.55347 4.95738 2.05345 5.97579 1.85088C6.99419 1.64831 8.04979 1.75227 9.0091 2.14963C9.96841 2.547 10.7884 3.2199 11.3652 4.08326C11.9421 4.94662 12.25 5.96165 12.25 7.00001C12.2483 8.39187 11.6946 9.72625 10.7105 10.7104C9.72625 11.6946 8.39188 12.2483 7.00001 12.25ZM6.73465 5.56815H6.55965C6.33038 5.56252 6.10728 5.64273 5.93408 5.79305C5.76089 5.94337 5.65008 6.15296 5.62339 6.38074C5.60813 6.6086 5.68256 6.8334 5.83079 7.00714C5.97902 7.18087 6.1893 7.28977 6.41673 7.31057V10.0231C6.41673 10.2551 6.50892 10.4777 6.67301 10.6418C6.83711 10.8059 7.05967 10.8981 7.29173 10.8981C7.5238 10.8981 7.74636 10.8059 7.91045 10.6418C8.07455 10.4777 8.16674 10.2551 8.16674 10.0231V7.00024C8.16674 6.62043 8.01586 6.25617 7.74729 5.9876C7.47872 5.71903 7.11446 5.56815 6.73465 5.56815ZM7.45713 4.76991C7.29252 4.8799 7.09899 4.93861 6.90101 4.93861C6.76953 4.93869 6.63933 4.91285 6.51785 4.86257C6.39636 4.81229 6.28598 4.73856 6.19302 4.64559C6.10005 4.55263 6.02632 4.44225 5.97604 4.32077C5.92576 4.19928 5.89992 4.06908 5.9 3.93761C5.9 3.73963 5.95871 3.5461 6.0687 3.38148C6.17869 3.21687 6.33503 3.08857 6.51794 3.0128C6.70085 2.93704 6.90212 2.91722 7.09629 2.95584C7.29047 2.99447 7.46883 3.0898 7.60882 3.22979C7.74882 3.36979 7.84415 3.54815 7.88278 3.74232C7.9214 3.9365 7.90158 4.13777 7.82581 4.32068C7.75005 4.50358 7.62175 4.65992 7.45713 4.76991Z" fill="#2A398C"/>
</svg>
